/* XPM */
static char *_0acf674d74c4e85ab895ed3e86bd7f8mrnHjPTNWkthk5Su[] = {
/* columns rows colors chars-per-pixel */
"64 64 25 1 ",
"  c None",
". c #BD0000",
"X c #BD0101",
"o c #BD0202",
"O c #BE0202",
"+ c #BE0303",
"@ c #BE0404",
"# c #BE0505",
"$ c #BE0606",
"% c #BF0606",
"& c #BE0707",
"* c #BF0707",
"= c #BF0808",
"- c #BF0909",
"; c #BF0A0A",
": c #BF0B0B",
"> c #C00B0B",
", c #C00C0C",
"< c #C00D0D",
"1 c #C00E0E",
"2 c #C00F0F",
"3 c #C10F0F",
"4 c #C11010",
"5 c #C01111",
"6 c #C11111",
/* pixels */
"                                                                ",
"                                                                ",
"                                                                ",
"                                                                ",
"                            5$$$$$=:                            ",
"                         5$.++......+$5                         ",
"                       :=+..+.........++1                       ",
"                      =.++...........++++=                      ",
"                     $.........+..........$                     ",
"                   =++.........+..........++$                   ",
"                  :.+.........++++........+.+1                  ",
"                  $.+......+$:11:::$...+....+$                  ",
"                 $+.......$:        5$++......$                 ",
"                =.+......=             $.......=                ",
"               1........+$              $++.....1               ",
"               +........+$6              =......+               ",
"              $...........+               $+....+$              ",
"              .............$               $....++              ",
"             $++...@5=.....+                ....++$             ",
"             $++...=  ......$               :....++             ",
"            :...++$   :+....+1               ++....:            ",
"            $....+1    $....+=               1++...$            ",
"            $....$     =....+.=               ++....            ",
"           =.....=      $.....$               =+....=           ",
"           =.....        +++...=               +....$           ",
"           +....$        $......5              $....$           ",
"           +....=         +.....$              =..+.+           ",
"           +....=         :.....+              =..+++           ",
"          $.....           $++..++              +...+$          ",
"          ++...+           1.+..++=             +...+$          ",
"          $+...+            $+....+             +...+$          ",
"          $+...+             +....+$            +...+=          ",
"          @@...+             =.+....=           +++.++          ",
"          -....+              $+....$           ++..+$          ",
"          $....+              =+....+:          +...+$          ",
"          =....$               $....++          +...+$          ",
"          =+....                +...+.=         .....=          ",
"           +....=               $.....+        =....+           ",
"           +....=                +....++       =....+           ",
"           +....+                :.....+       +....+           ",
"           =++..+                 ++....$      +....=           ",
"           :.+..+=                =+.....$    =+...+=           ",
"            +...+$                 =....++    $...++            ",
"            $...+.=                 ....++=  =....+$            ",
"            :.....+                 =+.....: $.....:            ",
"             +...++$                 +.....$$+....$             ",
"             =....+.5                =++....+...++=             ",
"              +...++$                 $+....+...+$              ",
"              =+.....$                 +.........=              ",
"               +......+                +........+               ",
"               5@......$1              +......++5               ",
"                =..+....+$>          1$.......+>                ",
"                 $++....++.+=      =+.......++$                 ",
"                  $+........++..++++........+$                  ",
"                   $..............+.........$                   ",
"                    $.++...................$                    ",
"                     :$+................++=                     ",
"                       =...+...+........>                       ",
"                        :=++..++....+$=:                        ",
"                            $++++++$                            ",
"                                                                ",
"                                                                ",
"                                                                ",
"                                                                "
};