/* XPM */
static char *_e7543288af941d0dab29aad7ff29cb0Mj2JlEFNEzPFkU22[] = {
/* columns rows colors chars-per-pixel */
"64 64 49 1 ",
"  c None",
". c #372C21",
"X c #3E3737",
"o c #3F3935",
"O c #786C61",
"+ c #3E3837",
"@ c #463737",
"# c #473737",
"$ c #675442",
"% c #615346",
"& c #6C5C4D",
"* c #7A654F",
"= c #726355",
"- c #766757",
"; c #796457",
": c #766363",
"> c #776363",
", c #766464",
"< c #796666",
"1 c #7B6969",
"2 c #7C6C6C",
"3 c #7F7272",
"4 c #7F7373",
"5 c #AF5C59",
"6 c #B65F5B",
"7 c #B75F5C",
"8 c #826B55",
"9 c #B8615D",
"0 c #807272",
"q c #817272",
"w c #807373",
"e c #817373",
"r c #807474",
"t c #817474",
"y c #8D7D79",
"u c #EB7474",
"i c #EC7575",
"p c #ED7575",
"a c #B09E8C",
"s c #ED8880",
"d c #CCB59F",
"f c #EECBAA",
"g c #EECCAA",
"h c #E1C7B0",
"j c #F4DEC8",
"k c #FBE0C6",
"l c #FCE3CA",
"z c #FDE3CB",
"x c #FCE4CC",
/* pixels */
"                                                                ",
"                             OOOOO                              ",
"                             OOOOO                              ",
"                           @OOOOOOOO                            ",
"                        OOOOOOOOOOOOOOO                         ",
"                        OOOOOOOOOOOOOOO                         ",
"                           $$%%&&&--                            ",
"                           $$%%&&&--                            ",
"                           $$%%&&&--                            ",
"                         **ddffhhh===                           ",
"                         **ddffhhh===                           ",
"                         **aazzkkkll                            ",
"                         **aallkkkll                            ",
"                           88ggxxx                              ",
"                           88ggxxx                              ",
"                           w4ss999yy                            ",
"                           wwss999yy                            ",
"                         wwww+Ouppww                            ",
"                         wwwwOOuppww                            ",
"                       ww>>ww@Ouuu69>                           ",
"                       >>>>>>+X555pu>                           ",
"                       >>>>>>XX655up>                           ",
"                       www443+X666pp2www                        ",
"                       wwww43XX669pp2www                        ",
"                       wwwwwwXX666pp24rw                        ",
"                       wwwwwwXX666pp23ww                        ",
"                       wwww<<XXXXX>><0ww                        ",
"                       wwww<<XXXXX>>1www                        ",
"                      wwwww>>XXXXX>>wwww                        ",
"                      wwwww>>XXXXX>>wwww                        ",
"                      wwwww>>XXXXX>>wwww                        ",
"                     wwwwww>>XXXXX>>wwwww                       ",
"                    qqwwwr3>>XXXXX>>wwwqww                      ",
"                    qqwww44>>XXXXX>>wwqqww                      ",
"                    wwqqw>>>>XXXXX>>wqqqww                      ",
"                    tqqww>>>>XXXXX;>wwwwww                      ",
"                    wwwww>>>>XXXXX>>wwwwww                      ",
"                      www>>>>XXXX@>>wwwwww                      ",
"                    rw3w3>>>>XXXXX>>wwwwww                      ",
"                     rrr3>>>>XXXXX>>wwww                        ",
"                     wwww>>>>XXXXX>>wwww                        ",
"                     wwww>>>>XXXXX>>wwww                        ",
"                     jgwwww>>XXXXX>>wfgg                        ",
"                     jgwwww>>XXXXX>>wggg                        ",
"                       wwww>>XXXXX>>3                           ",
"                       wwww>>XXXXX>>w                           ",
"                       >>ww,,###@@>>>                           ",
"                       >>ww,,###@@>>>                           ",
"                       >>>>>>@####>>>                           ",
"                           ##     ##                            ",
"                           ##     ##                            ",
"                           ##     ##                            ",
"                           ##     ##                            ",
"                           ##     ##                            ",
"                           @@     ##                            ",
"                           @@     ##                            ",
"                           ##     ##                            ",
"                           ##     ##                            ",
"                           ##     ##                            ",
"                           ##     ##                            ",
"                           ..     ..                            ",
"                         ....     ....                          ",
"                         ....     ....                          ",
"                                                                "
};
