/* XPM */
static char *d1472888aee643fcb9d5db41a43f349f92MDEIxuTXZBdsX8[] = {
/* columns rows colors chars-per-pixel */
"64 64 59 1 ",
"  c None",
". c #3E3737",
"X c #3F3935",
"o c #786C61",
"O c #3E3837",
"+ c #463636",
"@ c #473636",
"# c #463737",
"$ c #473737",
"% c #483737",
"& c #473838",
"* c #483838",
"= c #554747",
"- c #675442",
"; c #615346",
": c #6C5C4D",
"> c #675C5C",
", c #695C5C",
"< c #695E5E",
"1 c #6B5E5E",
"2 c #6B5F5F",
"3 c #6C5F5F",
"4 c #725F5F",
"5 c #7A654F",
"6 c #726355",
"7 c #766757",
"8 c #6C6060",
"9 c #6D6060",
"0 c #766363",
"q c #776363",
"w c #766464",
"e c #796666",
"r c #7B6969",
"t c #7C6C6C",
"y c #AF5C59",
"u c #B65F5B",
"i c #B75F5C",
"p c #826B55",
"a c #B8615D",
"s c #807272",
"d c #817272",
"f c #807373",
"g c #817373",
"h c #807474",
"j c #8D7D79",
"k c #EB7474",
"l c #EC7575",
"z c #ED7575",
"x c #B09E8C",
"c c #ED8880",
"v c #CCB59F",
"b c #EECBAA",
"n c #EECCAA",
"m c #E1C7B0",
"M c #F4DEC8",
"N c #FBE0C6",
"B c #FCE3CA",
"V c #FDE3CB",
"C c #FCE4CC",
/* pixels */
"                                                                ",
"                             oooo                               ",
"                             oooo                               ",
"                            ooooooo                             ",
"                        oooooooooooooo                          ",
"                        oooooooooooooo                          ",
"                            -;;::77                             ",
"                            -;;::77                             ",
"                          55vnnmm6666                           ",
"                          55vnnmm7666                           ",
"                          55xBBNNCB                             ",
"                          55xBBBNCC                             ",
"                            tnnCC                               ",
"                            hccaajj                             ",
"                            tccaajj                             ",
"                          hhtoolzhh                             ",
"                          tttOOlldd                             ",
"                        jttrt=Olkii0q                           ",
"                        ttwwtOOlkaa0q                           ",
"                        wwwwtOOyyklqq                           ",
"                        twwt0..uyll00                           ",
"                        hhtht..uilltthd                         ",
"                        htjtt&.uillttdh                         ",
"                        jtttrO..#qqrrdd                         ",
"                      dhdhdhq....0qthhh                         ",
"                      hdhdhdq....0qdhhh                         ",
"                      gghhdtq....00htddh                        ",
"                      ghhhhhq....00dhddh                        ",
"                    ddgdhhdteO...0ehhhhh                        ",
"                    ddhhhdhdeO...0ehhhhh                        ",
"                    dhhhdte0w....qetdhdhhd                      ",
"                    thhhdde0w....qehtdhdhh                      ",
"                    ghdhdhqqq....qqth  hhd                      ",
"                    gdhdtdqqq....qqdh  hdh                      ",
"                      dhhhqqq....qqhh  hhddh                    ",
"                      hhhh00q....qqdh     MM                    ",
"                      hhhhq0q....qedh     MM                    ",
"                      nnhhhdq....00dd                           ",
"                      nnhhdhq....qqdd                           ",
"                        hhtd0....qqhd                           ",
"                        dhdheO...0qdd                           ",
"                        qqthw*$$%000q                           ",
"                        qqddw$$$%00qq                           ",
"                        q00qw&$$$44q0                           ",
"                        e0000$$$$4400                           ",
"                        8,%$$  $$$$$$                           ",
"                          $$$$$39                               ",
"                          $$$$$39                               ",
"                            $$$$$                               ",
"                            $$$$$                               ",
"                          $$$  $$,,                             ",
"                          $$$  $$,,                             ",
"                        33$$   $$$$                             ",
"                        33**   $$$$                             ",
"                      &&,,       $$,3                           ",
"                      &&33       &&88                           ",
"                    ==>>         &&$$                           ",
"                  &&,,             %%                           ",
"                  &&8,             %%                           ",
"                 $$$               $$$$                         ",
"                 $$$               $$$$                         ",
"                  $$$$             88$$$                        ",
"                  **&&             88%%$                        ",
"                                                                "
};
