/* XPM */
static char *result[] = {
/* columns rows colors chars-per-pixel */
"64 64 50 1 ",
"  c #352A1F",
". c #3D3733",
"X c #3B3434",
"o c #3C3535",
"O c #3C3635",
"+ c #786C61",
"@ c #3E3834",
"# c #443535",
"$ c #453535",
"% c #665240",
"& c #605144",
"* c #6B5B4B",
"= c #79644D",
"- c #7A644D",
"; c #716254",
": c #756656",
"> c #756161",
", c #756262",
"< c #766262",
"1 c #776262",
"2 c #786464",
"3 c #786565",
"4 c #796767",
"5 c #7A6868",
"6 c #7B6B6B",
"7 c #7E7070",
"8 c #7F7070",
"9 c #7E7171",
"0 c #7F7171",
"q c #7E7272",
"w c #7F7272",
"e c #AF5B58",
"r c #B75E5B",
"t c #816A54",
"y c #B8605C",
"u c #807171",
"i c #807272",
"p c #DA7171",
"a c #EB7373",
"s c #EC7474",
"d c #ED7474",
"f c #ED877F",
"g c #B09D8B",
"h c #CCB59E",
"j c #EECBAA",
"k c #EECCAA",
"l c #E1C7B0",
"z c #FCE0C6",
"x c #FEE3CB",
"c c None",
/* pixels */
"cccccccccccccccccccccccccccccccccccccccccccccccccccccccccccccccc",
"cccccccccccccccccccccccccccccc@@cccccccccccccccccccccccccccccccc",
"ccccccccccccccccccccccccccccc+++cccccccccccccccccccccccccccccccc",
"ccccccccccccccccccccccccccc++++++ccccccccccccccccccccccccccccccc",
"ccccccccccccccccccccccccccc++++++ccccccccccccccccccccccccccccccc",
"cccccccccccccccccccccccc++++++++++++cccccccccccccccccccccccccccc",
"cccccccccccccccccccccccc++++++++++++cccccccccccccccccccccccccccc",
"ccccccccccccccccccccccccccc%%&&*:ccccccccccccccccccccccccccccccc",
"ccccccccccccccccccccccccccc%%&&*:ccccccccccccccccccccccccccccccc",
"ccccccccccccccccccccccccc==hhjjl;;;ccccccccccccccccccccccccccccc",
"ccccccccccccccccccccccccc==hhjjl;;;ccccccccccccccccccccccccccccc",
"ccccccccccccccccccccccccc==ggxxzzccccccccccccccccccccccccccccccc",
"ccccccccccccccccccccccccc==ggxxzzccccccccccccccccccccccccccccccc",
"ccccccccccccccccccccccccc--ttjjccccccccccccccccccccccccccccccccc",
"ccccccccccccccccccccccccc--ttjjccccccccccccccccccccccccccccccccc",
"cccccccccccccccccccccccccccwwffyyccccccccccccccccccccccccccccccc",
"cccccccccccccccccccccccccccwwffyyccccccccccccccccccccccccccccccc",
"cccccccccccccccccccccccccwwww..ddccccccccccccccccccccccccccccccc",
"cccccccccccccccccccccccccwwww..ddacccccccccccccccccccccccccccccc",
"ccccccccccccccccccccccwww<<ww++aar<ddccccccccccccccccccccccccccc",
"ccccccccccccccccccccccwww<<ww++aar<ddccccccccccccccccccccccccccc",
"ccccccccccccccccccccccwww<<ww++aar<ddccccccccccccccccccccccccccc",
"cccccccccccccccccccccc<<<<<<<OOeespccccccccccccccccccccccccccccc",
"cccccccccccccccccccccc<<<<<<<OOeespccccccccccccccccccccccccccccc",
"ccccccccccccccccccccccwwwwwwwooXXd600ccccccccccccccccccccccccccc",
"ccccccccccccccccccccccwwwwwwwooXXd600ccccccccccccccccccccccccccc",
"cccccccccccccccccccc>>wwwww33oooo<557ccccccccccccccccccccccccccc",
"cccccccccccccccccccc>>wwwww33oooo<557ccccccccccccccccccccccccccc",
"cccccccccccccccccccc99wwwww<<oooo<www>>ccccccccccccccccccccccccc",
"cccccccccccccccccccc99wwwww<<oooo<www>>ccccccccccccccccccccccccc",
"cccccccccccccccccccciiwwwww<<oooo<wwwccccccccccccccccccccccccccc",
"cccccccccccccccccccciiwwwww<<oooo<wwuww>>ccccccccccccccccccccccc",
"ccccccccccccccccccuuwwwwwww<<oooo<wwuuw>>ccccccccccccccccccccccc",
"ccccccccccccccccccuuwwwwwww<<oooo<wwuuw,,ccccccccccccccccccccccc",
"ccccccccccccccccccwwii888<<<<oooo<wwuuw,,ccccccccccccccccccccccc",
"ccccccccccccccccccwwiiwww<<<<oooo<wwwwwccccccccccccccccccccccccc",
"ccccccccccccccccccuuiiwww<<<<oooo<wwwwwccccccccccccccccccccccccc",
"ccccccccccccccccccccwwwww<<<<oooo<wwww9ccccccccccccccccccccccccc",
"ccccccccccccccccccccwwwww<<<<oooo<wwww9ccccccccccccccccccccccccc",
"ccccccccccccccccccccwwwww,,<<oooo<qq00cccccccccccccccccccccccccc",
"cccccccccccccccccccckkwwwww<<oooo<uukkcccccccccccccccccccccccccc",
"cccccccccccccccccccckkwwwww<<oooo<uukkcccccccccccccccccccccccccc",
"cccccccccccccccccccc00wwwww<<oooo<wwcccccccccccccccccccccccccccc",
"cccccccccccccccccccc00wwwww<<oooo<wwcccccccccccccccccccccccccccc",
"ccccccccccccccccccqq22444qq,,$$$$,<<cccccccccccccccccccccccccccc",
"ccccccccccccccccccqq22444qq,,$$$$,<<cccccccccccccccccccccccccccc",
"cccccccccccccccccccc4411100>>$$$$<<<cccccccccccccccccccccccccccc",
"cccccccccccccccccccc4411100>>$$$$<<<cccccccccccccccccccccccccccc",
"ccccccccccccccccccccccccc<<$$>>c$$cccccccccccccccccccccccccccccc",
"ccccccccccccccccccccccccc<<$$>>c$$cccccccccccccccccccccccccccccc",
"ccccccccccccccccccccccccc<<$$ccc$$cccccccccccccccccccccccccccccc",
"ccccccccccccccccccccccccc<<$$ccc$$cccccccccccccccccccccccccccccc",
"ccccccccccccccccccccccccc<<$$ccc$$cccccccccccccccccccccccccccccc",
"ccccccccccccccccccccccccccc##ccc$$cccccccccccccccccccccccccccccc",
"ccccccccccccccccccccccccccc##ccc$$cccccccccccccccccccccccccccccc",
"ccccccccccccccccccccccccccc$$ccc$$cccccccccccccccccccccccccccccc",
"ccccccccccccccccccccccccccc$$ccc$$cccccccccccccccccccccccccccccc",
"ccccccccccccccccccccccccccc$$ccc$$cccccccccccccccccccccccccccccc",
"ccccccccccccccccccccccccccc$$ccc$$cccccccccccccccccccccccccccccc",
"ccccccccccccccccccccccccccc  ccc  cccccccccccccccccccccccccccccc",
"ccccccccccccccccccccccccccc  ccc  cccccccccccccccccccccccccccccc",
"ccccccccccccccccccccccccc    ccc    cccccccccccccccccccccccccccc",
"ccccccccccccccccccccccccc    ccc    cccccccccccccccccccccccccccc",
"cccccccccccccccccccccccccccccccccccccccccccccccccccccccccccccccc"
};
