/* XPM */
static char *cffff35086f74885ecaf085b5ee35bdcegEvAZZLya75Sp92[] = {
/* columns rows colors chars-per-pixel */
"64 64 9 1 ",
"  c None",
". c black",
"X c #302E30",
"o c #3F5673",
"O c #375378",
"+ c #464646",
"@ c #A1460D",
"# c #9C5A3C",
"$ c #B4B4B4",
/* pixels */
"                                                                ",
"                                                                ",
"                                                                ",
"                                                                ",
"                                                                ",
"                                                                ",
"                                                                ",
"                                                                ",
"                                                                ",
"                                                                ",
"                                                                ",
"                                                                ",
"                                                                ",
"                                   ...........                  ",
"                               ....OOOOOOOOOOO.....             ",
"                             ..OOOOOOOOOOOOOOOOOOO..            ",
"                           ...OOOOOOOOOOOOOOOOOOOOO..           ",
"                           .OOOOOOOOooooooooOOOOOOOOO.          ",
"                          .OOOOOOOOOXXXXXXXXoOOOOOOOOO.         ",
"                         .OOOOOOOOOoXXXXXXXXXoOOOOOOOOO.        ",
"                         .OOOOOOOOOoXXXXXXXXXXoOOOOOOOO..       ",
"                       ..OOOOOOOOOOoXXXoooXXXXoOOOOOOOOO..      ",
"                       .OOOOOOOOOOOOXXXOOOoXXXXoOOOOOOOOO.      ",
"                       .OOOOOOOOOOOOOOOOOOOoXXXoOOOOOOOOO..     ",
"                      .OOOOOOOOOOOOOOOOOOOOoXXXoOOOOOOOOOO.     ",
"                      .OOOOOOOOOOOOOOOOOOOooXXXoOOOOOOOOOO.     ",
"                      .OOOOOOOOOOOOOOOOOooXXXXXoOOOOOOOOOO.     ",
"                      .OOOOOOOOOOOOOOOOoXXXXXXoOOOOOOOOOOO.     ",
"                      .OOOOOOOOOOOOOOOOoXXXXXXoOOOOO$OOOOO.     ",
"                      .OOOOOOOOOOOOOOOOXXXXXXoOOOOOO$OOOOO.     ",
"                      ..OOOOOOOOOOOOOOOXXXXooOOOOOO$$OOOO..     ",
"                       ..OOOOOOOOOOOOOOXXXXoOOOOOO$$OOOOO.      ",
"                       ..OOOOOOOOOOOOOOOOOOOOOOOO$$OOOOO..      ",
"                        ..OOOOOOOOOOOOOXXXXOOOO$$$OOOOO..       ",
"                         .OOOOOOOOOOOOOXXXXOOOOOOOOOOOO.        ",
"                          .OOOOOOOOOOOOXXXXOOOOOOOOOOO..        ",
"                          .OOOOOOOOOOOOOOOOOOOOOOOOOOO.         ",
"                           ...OOOOOOOOOOOOOOOOOOOOO....         ",
"                           ....OOOOOOOOOOOOOOOOOO....           ",
"                             ....OOOOOOOOOOOOO........          ",
"                                ...OOOOOOOOOO.......+++         ",
"                                  .............  +++...+        ",
"                                                  +.....        ",
"                                                  +..##..       ",
"                                                  ...###..      ",
"                                                   ....##..     ",
"                                                    ....##.     ",
"                                                    ....##..    ",
"                                                     ...###..   ",
"                                                      ...##...  ",
"                                                       ..@##@.  ",
"                                                       ...@@@.. ",
"                                                         ..@@@. ",
"                                                          .@@@..",
"                                                           ..@@.",
"                                                            ....",
"                                                                ",
"                                                                ",
"                                                                ",
"                                                                ",
"                                                                ",
"                                                                ",
"                                                                ",
"                                                                "
};
