/* XPM */
static char *f864b4e7fa0a4f43ce18c3fd5763339cLRSVpjfYKwGyUfaE[] = {
/* columns rows colors chars-per-pixel */
"64 64 9 1 ",
"  c None",
". c black",
"X c #302E30",
"o c #3F5673",
"O c #375378",
"+ c #464646",
"@ c #A1460D",
"# c #9C5A3C",
"$ c #B4B4B4",
/* pixels */
"                                                                ",
"                                                                ",
"                                                                ",
"                                                                ",
"                                                                ",
"                                                                ",
"                                                                ",
"                                                                ",
"                                                                ",
"                                                                ",
"                                                                ",
"                                                                ",
"                                                                ",
"                                                                ",
"                                                                ",
"                                                                ",
"                                                                ",
"                                                                ",
"                                                                ",
"                                                                ",
"                                                                ",
"                         ...........                            ",
"                     ....OOOOOOOOOOO.....                       ",
"                   ..OOOOOOOOOOOOOOOOOOO..                      ",
"                 ...OOOOOOOOOOOOOOOOOOOOO..                     ",
"                 .OOOOOOOOooooooooOOOOOOOOO.                    ",
"                .OOOOOOOOOXXXXXXXXoOOOOOOOOO.                   ",
"               .OOOOOOOOOoXXXXXXXXXoOOOOOOOOO.                  ",
"               .OOOOOOOOOoXXXXXXXXXXoOOOOOOOO..                 ",
"             ..OOOOOOOOOOoXXXoooXXXXoOOOOOOOOO..                ",
"             .OOOOOOOOOOOOXXXOOOoXXXXoOOOOOOOOO.                ",
"             .OOOOOOOOOOOOOOOOOOOoXXXoOOOOOOOOO..               ",
"            .OOOOOOOOOOOOOOOOOOOOoXXXoOOOOOOOOOO.               ",
"            .OOOOOOOOOOOOOOOOOOOooXXXoOOOOOOOOOO.               ",
"            .OOOOOOOOOOOOOOOOOooXXXXXoOOOOOOOOOO.               ",
"            .OOOOOOOOOOOOOOOOoXXXXXXoOOOOOOOOOOO.               ",
"            .OOOOOOOOOOOOOOOOoXXXXXXoOOOOO$OOOOO.               ",
"            .OOOOOOOOOOOOOOOOXXXXXXoOOOOOO$OOOOO.               ",
"            ..OOOOOOOOOOOOOOOXXXXooOOOOOO$$OOOO..               ",
"             ..OOOOOOOOOOOOOOXXXXoOOOOOO$$OOOOO.                ",
"             ..OOOOOOOOOOOOOOOOOOOOOOOO$$OOOOO..                ",
"              ..OOOOOOOOOOOOOXXXXOOOO$$$OOOOO..                 ",
"               .OOOOOOOOOOOOOXXXXOOOOOOOOOOOO.                  ",
"                .OOOOOOOOOOOOXXXXOOOOOOOOOOO..                  ",
"                .OOOOOOOOOOOOOOOOOOOOOOOOOOO.                   ",
"                 ...OOOOOOOOOOOOOOOOOOOOO....                   ",
"                 ....OOOOOOOOOOOOOOOOOO....                     ",
"                   ....OOOOOOOOOOOOO........                    ",
"                      ...OOOOOOOOOO.......+++                   ",
"                        .............  +++...+                  ",
"                                        +.....                  ",
"                                        +..##..                 ",
"                                        ...###..                ",
"                                         ....##..               ",
"                                          ....##.               ",
"                                          ....##..              ",
"                                           ...###..             ",
"                                            ...##...            ",
"                                             ..@##@.            ",
"                                             ...@@@..           ",
"                                               ..@@@.           ",
"                                                .@@@..          ",
"                                                 ..@@.          ",
"                                                  ....          "
};
