/* XPM */
static char *enemy1680433875[] = {
/* columns rows colors chars-per-pixel */
"64 64 212 2 ",
"   c #060100",
".  c #0C0501",
"X  c #0E0903",
"o  c #100700",
"O  c #140C04",
"+  c #180F06",
"@  c #140E09",
"#  c #180F08",
"$  c #171006",
"%  c #191007",
"&  c #16110B",
"*  c #1C130B",
"=  c #1E180E",
"-  c #120F12",
";  c #190F13",
":  c #100C1A",
">  c #161312",
",  c #1C1512",
"<  c #1D1812",
"1  c #17141B",
"2  c #1C151A",
"3  c #1E191C",
"4  c #211207",
"5  c #21150C",
"6  c #22190E",
"7  c #29190D",
"8  c #201711",
"9  c #231A12",
"0  c #291E14",
"q  c #21161B",
"w  c #241A1C",
"e  c #291F18",
"r  c #29161C",
"t  c #34080A",
"y  c #292016",
"u  c #2C221B",
"i  c #1F1922",
"p  c #231720",
"a  c #221B24",
"s  c #291D24",
"d  c #251D29",
"f  c #2A1E2C",
"g  c #3A1A27",
"h  c #2C1F31",
"j  c #251C31",
"k  c #262126",
"l  c #262329",
"z  c #2B212D",
"x  c #2C2A2F",
"c  c #33222E",
"v  c #242234",
"b  c #2D2233",
"n  c #2D2A35",
"m  c #2F2139",
"M  c #312336",
"N  c #33253C",
"B  c #38263E",
"V  c #342C3D",
"C  c #3C293C",
"Z  c #342C37",
"A  c #31303B",
"S  c #2D3238",
"D  c #4B0B0C",
"F  c #5E0C0E",
"G  c #4E1116",
"H  c #54161B",
"J  c #78090C",
"K  c #441D22",
"L  c #4C1F34",
"P  c #701729",
"I  c #4B232B",
"U  c #362641",
"Y  c #392642",
"T  c #372B43",
"R  c #3A2A44",
"E  c #3D2B4B",
"W  c #3B274A",
"Q  c #373643",
"!  c #393543",
"~  c #3E3B4B",
"^  c #3B314A",
"/  c #3D2C50",
"(  c #3D3252",
")  c #412C4E",
"_  c #5D2845",
"`  c #41324C",
"'  c #4E334B",
"]  c #413C4F",
"[  c #493A4F",
"{  c #463D42",
"}  c #422E52",
"|  c #443155",
" . c #4A3454",
".. c #433C52",
"X. c #4A3C54",
"o. c #473358",
"O. c #4A345A",
"+. c #463C5A",
"@. c #4B3A5D",
"#. c #52375D",
"$. c #52395A",
"%. c #603F5F",
"&. c #4C3E60",
"*. c #533B64",
"=. c #5A3C66",
"-. c #5D3E69",
";. c #563F69",
":. c #7B3C67",
">. c #3E404C",
",. c #3B4457",
"<. c #474247",
"1. c #454255",
"2. c #444759",
"3. c #4B455D",
"4. c #49495C",
"5. c #434A59",
"6. c #564A56",
"7. c #535257",
"8. c #645C59",
"9. c #656159",
"0. c #68635D",
"q. c #4C4362",
"w. c #4C4B62",
"e. c #4D4E6A",
"r. c #514667",
"t. c #514867",
"y. c #54456A",
"u. c #5C426D",
"i. c #534C6B",
"p. c #584C6E",
"a. c #4D5466",
"s. c #54536C",
"d. c #54586E",
"f. c #5D4571",
"g. c #5D4C73",
"h. c #565572",
"j. c #5B5474",
"k. c #5B5A76",
"l. c #5E5C79",
"z. c #5A5977",
"x. c #62436E",
"c. c #6D486C",
"v. c #6F4A79",
"b. c #684775",
"n. c #714775",
"m. c #724A7A",
"M. c #7A4C78",
"N. c #615375",
"B. c #625B7C",
"V. c #67547A",
"C. c #5E637C",
"Z. c #556377",
"A. c #61617C",
"S. c #870404",
"D. c #880F19",
"F. c #84527E",
"G. c #807579",
"H. c #898579",
"J. c #665D81",
"K. c #6A5883",
"L. c #7B5384",
"P. c #795C86",
"I. c #636481",
"U. c #656B84",
"Y. c #6B6389",
"T. c #666A88",
"R. c #6B6A8A",
"E. c #79638B",
"W. c #647089",
"Q. c #6A728D",
"!. c #7C6790",
"~. c #6D7492",
"^. c #6A7995",
"/. c #727996",
"(. c #747C9C",
"). c #727597",
"_. c #7C7889",
"`. c #89588B",
"'. c #8C5C92",
"]. c #995F9A",
"[. c #915E96",
"{. c #836391",
"}. c #8D6C9A",
"|. c #866B95",
" X c #9D649D",
".X c #946599",
"XX c #907F9F",
"oX c #8A668A",
"OX c #A5669F",
"+X c #966EA0",
"@X c #9E79AD",
"#X c #877BA3",
"$X c #A166A1",
"%X c #AF6FAC",
"&X c #A86BA7",
"*X c #B16EAC",
"=X c #AE71AD",
"-X c #A370A8",
";X c #B371AF",
":X c #A479B1",
">X c #B573B2",
",X c #BB76B8",
"<X c #72809C",
"1X c #7683A2",
"2X c #7985A4",
"3X c #7C89A9",
"4X c #8C888F",
"5X c #B1AA97",
"6X c #BBB7A7",
"7X c #C090B6",
"8X c #C3BDA7",
"9X c #DCC7C2",
/* pixels */
"  X @ & > < < > & X . > = O , u e O $ < *     @ & > < $ & > & . & > < & < < 8 9 8 4 + 4 4 * * * * * * * # * * * # 5 < 8 5 * , * ",
"  . X & < > @ X X X X & $ . $ & * O $ * O     X @ & > & X X X   X & & X $ & * & * + # # 4 5 * 4 * O * * * , * * O # # * * + # O ",
"    O > , < #     X @ > * @ > * * * * $ o . . . & & < & X   X X & * & & * * * + * O O + * * * 4 * O * 5 * 5 * * O * + + # * * O ",
"    @ & < , @     & . > < > 9 9 < , 8 * O .   . > & < &     X X & > = & , 6 * * 4 * + % * * % % * + * * # 4 * * * 8 8 8 8 8 * O ",
"  X , , , * O . . .   , , . * < 6 * % 5 $ . . + > > > & X   X X O * # @ , 8 * * , 5 * * * % % $ * O 4 , # * , # # < 8 8 8 * 5 + ",
"& > 9 9 * $ X . #     $ @ . O , 4 O % 5 * X O = < * & & X X @   X @ O o * * * * 4 % % * 4 7 % * 5 O # , # 5 * # O * 5 5 * * , * ",
"& , < * , * @ . & & . @ X   @ * * * * * & # * 6 = = > & X X # X O @ O X # * * * % * % % * * * 4 * O 5 5 * 8 * * O * > * * * 5 + ",
", * * # * , + . O * @ @ X X * X * 9 * % o @ $ * & * < & X & > X @ @ o . + 5 8 * * % $ * * * * % # O # 8 * * * # # * * * * + * O ",
"% * 7 * * , o 5 , , , 8 @ @ @ & = 4 * * % $ $ % * * 9 < + & * & , > # @ * * * * * # + + * * # * * O % * * 5 * * # * 5 * * # # O ",
"+ * * % 6 5 o O * , * * @ X X & * * 4 $ * $ = * = $ < & @ , < * * O .   . + * * * * + * 4 4 4 5 * O + * * , 5 * # * , * * * 5 O ",
"4 4 7 * 9 0 O + * * O .   X X X % * 7 * % 4 4 * 9 * < & X * $ @ X . . . . o * , 5 # + + 4 * * 4 * O O * $ * * * @ * , * * * * # ",
"7 6 6 # 4 7 # 7 + .       X @ @ % * * 4 % % * 7 9 = 9 $ @ * + X   . . + # + * * 6 # + * 4 * * # 4 O * * # * + @ o # # * * * 5 O ",
"7 4 6 + + 4 O 9 < , X . X @ > < * 4 7 % * $ = 0 * O 4 $ & 9 9 < X . o * , * * * * O o 5 9 6 * # * O * e 9 w = 6 O # 4 # * * * @ ",
"4 0 0 7 7 % o 4 u 9 & X X X & < * 4 * * $ % 6 u * * 6 * & e 9 < + . . & * , * * 5 # + 6 0 0 7 6 * + 8 9 7 e 8 * o * * % * # * O ",
"4 7 0 7 9 7 . + 9 < & & X X & & * 7 7 4 $ $ 4 7 * * 9 * + * = * > $ . O * 5 * 8 9 # o * 0 7 * 6 5 o * 8 * 5 * * O * # * * , * O ",
"4 4 + o % 4 X + * * > > @ @ > < * 5 6 4 + O $ = O O * + . * * * = X X $ 8 8 8 5 0 # O # # # O + * O O * * * * 4 O * * * # # # O ",
"7 + + O O .   O * * * , p 2 p q w q r q # # 5 # O % O     * 5 + O + * + 8 * * 5 5 # O 8 q > ; q q ; q w w 8 * * % * = = % $ % O ",
"7 4 * % $ X   * # * # f U B U B N B B N q # 6 * = * @ O O * * o . + # # 8 > > , * @ # 8 M B N N U m U T B w * * % * % % $ + * O ",
"= * 6 * O X   = $ & @ b O.*.=.=.-.-.-.-.M # 9 5 , w n a # * * . + + # # w n l 9 * # # a ' -.u.u.=.-.=.*.E s * * % * 4 = * # * % ",
"* * 6 * $ O . < * , @ b *.`. X$X+X X&X].' > * # , S a.5.3 * * + + + O # S Z.5.w # * @ c M.$X$X X X$X].b.W 9 * * $ = 6 % $ * * $ ",
"= * * * * * O * 5 8 8 C x. X>X=X%X%X,X=X%.2 * * 2 ~ ).A.n > * * + * # > 1.<XA.a ; # @ B `.>X;X=X*X>X=XL.O.f 5 4 % * * * * * * O ",
"y * $ $ * 6 $ * , s R n..X}.!.L.v.m.{.|.X.> * % > X.}.E.R i < * # > 2 h u.@XP.k & * @ n V.{.L.n.L.P.|..X`.$.f 8 $ * 4 5 * * * # ",
"* $ $ X * = O * 8 z *.'.-XE.i.o.) } y.z.~ 3 8 * > '  X].*.b i i i 3 f T m.;XF.d @ * > n w.h.@./ ) &.B.+X*Xv.U 8 + * * 5 5 * 5 # ",
"= $ $ O * = & = , z O.P.{.j.+.E | q.w.q.3.~ k @ @ ' OX:XY.+.T ( 4.T U &.P.,X`.a X > n 1.w.q.q.@./ / q.E.}.b.U 2 . O O + O o O O ",
"0 $ $ X % = & , 8 M  .j.h.&.} } q.z.t.| t.s.A > 3 ' .X:X(.h.&.I.^.r.+.s.!.;XM.k > l 1.h.&.@.j.i.O./ | p.I.y.W 2 * 8 9 8 * 8 * O ",
"= $ X . $ < + < M $.m.N.q.| | &.t.i.@.} +.2.1.! T  .c.N.d.e.p.~.2XR.h.,.3.c.%.^ Q ! 1...| o.t.i.r.@.} +.t.v.n.L q * 8 8 , 5 5 # ",
"= $ X . $ * * a ) `. Xv.| } @.h.i.O.| } h v 2.j.p. .c k x ~ z./.2X1XI.A a f ` $.j.s.Q z T } o.q.j.t.o.E @.[.+X-.h > , 8 * 5 * O ",
"* $ O . $ * # s  .'.*Xm.) E q.l.h.o.} | f q 3.B.f.( i t D I 4.T.<XW.t.H t > b *.V.h.T i U } } q.l.s./ W O. X;Xv.m ; * , > 5 # @ ",
"= * $ $ $ * * s  .`.&Xv./ E @.l.i.o.} } f a +.f.*.T i G S.F Z Z.^.,.K S.J q v o.-.y.B a U } } q.z.p.| E #.].*Xb.m ; , 8 4 * # o ",
"* * * $ = 9 q M O.L..Xb.} } @.i.t.o.E U d a | *.o.U i G D.P  .T.^.,.K D.S.r v } *.@.N a b W } q.i.q.} / O.{..Xx.Y d q 8 , * * O ",
"= = = * = e B } O.j.P.y.} } o.@.@.| B d 2 i R O.o.U a g _ :.`.#X1Xz.X._ L p v ) O.} b 3 i b W O.&.o.} / O.B.Y.*.} W f 8 8 5 * + ",
"$ * = $ $ w U R W +.w...E } | } } W b d 2 i U | o.U a i T oX7XXXQ.<X_.+.j 3 h } o.E h 2 i b T W } } o.W E 3.4.E Y Y f 8 , 5 # + ",
"6 * 4 % * 9 2 w q f n n M E O.} T h M U d 3 N o.O.T a : z 4X9XG.7.6X6X<.: 2 h } O.W z i b B b M } o.} U k n n a 2 p w , * * * O ",
"6 * 6 % 4 5 + e 6 , > 2 a U } / m i M } m d Y | E T z i c H.8X9.{ 5X8X<.1 a N W | E M b E W d d T } E h 2 3 2 & O * * 8 5 * 5 O ",
"= 6 y $ * % O 7 7 9 , , 3 a b b d 3 N | E R } E M V 1.X.X.6.9.6.[ 8.9.[ ` o.R b B ( E R } E a a b b b a 9 < < = O # 8 8 8 * 5 O ",
"6 y u = = = O * 9 8 * 5 8 > i 3 2 3 M } } | | R d n d.A.x.R f } *.M z *.V.x.^ i b } | } } U d 3 3 3 3 , < 9 < & X * 8 8 8 , 5 O ",
"% = 6 % * 6 O % 5 * + * * O > , < , s m N N } E d n s.J.j.@.W &.y.W W g.K.V...i b } E N N f w > , & > , = $ * $ O * 8 8 5 , # O ",
"% % $ O + + . O * * O * * O 5 8 8 * , 3 2 a R W d n s.I.B.j.f.u.f.u.g.l.A.A.1.i m W b 3 3 2 * O O X $ * $ @ $ * O * # 4 * # # O ",
"0 6 * $ + o . % % O . O * O , * * # * & & 2 z m a Q I./.~.I.V.u.-.g.B.k.U./.a.k d M a > > , # # X . X & @ X X % # # # 8 # # 5 O ",
"6 % * * + o   * 4 O   O * * = * * O # $ % , w i 3 Q W.3X1XQ.l.g.f.V.l.l.Q.1Xd.a 2 a 8 5 8 * * * X   @ & X X @ % # # 8 8 # # 4 # ",
"6 = 6 = $ O X * + $ # + * O 6 * * $ * * O % 8 < , x a.Q.1X<XQ.Y.Y.T.^.Q.W.C.>.w > > * * , * * * X X > * + + # $ # * * # 5 5 8 # ",
"6 % 6 = $ $ O 4 * * * + 5 . * * $ % * * O $ 5 * * , k w.<X2X2X(.(.(.1X2XA.A 3 * * * # * * * 5 * $ & * < $ * * # @ * 8 * # # # O ",
"= % = 6 = * O 6 5 * * # 8 O * * 4 * * % % * 8 * * + > ! U.).).T.I.R.(.(.h.a @ # * # * + # * * $ * * & $ & , 9 * O 8 8 * * # # + ",
"= % % % * * % * * * * * 8 O 9 8 6 * * $ % * 7 * % # 3 T p.K.g...Q r.K.K.q.d @ * * * O . O * * * $ & & $ X X & & O 5 8 8 8 # 5 # ",
"6 $ = % % 6 $ = 4 * * % * O = * * % * $ + $ * O o # 3 R =.-. .f i R *.x.O.d > * * # o   . O * * $ X X X . X $ * O # 5 # # # , O ",
"6 * = % % 6 $ % * * * % * X * * * * * * O O % O . O w R ;. .M , , a R u.#.l > * * * o     O + * > $   @ . + * $ # * # # * * 5 O ",
"6 = 4 % $ = O * + # # * 9 O y 6 4 $ * 4 $ * * O . O 2 Z O.R 2 * * @ f @.o.a , * * # O     + * * < &   X . + 5 # + 9 5 # 8 8 * O ",
"4 % 6 $ % 4 $ % * * * * 8 O 8 6 7 % % * % 4 * O . O * w M k 8 > # @ > m n , * * , * o . o # , * & X   . . O # # # 5 8 8 8 # 8 4 ",
"* O = $ * * O % % 4 = $ 7 O * * 5 * * 5 # # * + o o # , > q * 4 * @ X 2 2 * * * 7 * o O # 5 8 # * X . O X X X $ X @ * * * * * * ",
"6 $ 4 % % * O * % % * % * X * % , # * , O # * # O + 8 * * , * 5 , @ . X * , # * 8 % O + * 5 5 # & X . $ X $ X O . @ * * * * * O ",
"4 $ % $ % * % * * % * % 6 . 4 * * * # , O # * # O O * # @ * # * * @ O . * * * * * + o + * 4 5 5 = X X > $ & X O X @ * * # # # O ",
"4 $ * * % * O % = * 4 * 9 O 6 6 5 # * * O # # 4 * # * # # * * * # o   . # > , 5 * % + # 4 * # 4 = @ @ = & = = = X + * * * 5 * O ",
"6 $ = * * * o + * % * % 7 X 6 * * * , 5 # * * * 8 * 5 + O , # * . . . . # * * 8 * * + * # 5 5 8 = @ $ $ & < $ & O O # # * 8 5 O ",
"6 $ 6 4 6 * O O % + * @ * X * % 8 * * # # * 5 * 5 # + O o + O O . .   . + * * * * * * 4 5 8 5 5 = @ & $ $ @ @ X   o O # * 8 * # ",
"6 * * * * 4 O % % % $ $ * . % % * # , * # # 5 , 8 * 5 # * * # # $ + + O * * * * 4 * # * , 5 5 5 = @ = > $ X .   O o # # # , * # ",
"6 % * $ $ * $ 6 6 4 = * 7 O 6 $ * # * * # # * * , # 8 # * 9 * 8 6 , + @ * * # , 5 # + % 4 8 4 * = X < < = X . . # * , # 5 5 * # ",
"* y u 4 * * % * y y 6 6 * O * % * * * * O * e u * * * + % e u 9 8 9 $ $ * 9 * = 5 # O * e 0 * * = $ < y 9 $ O X O # # 5 8 5 4 # ",
"* 9 y % * 7 O O 8 e * * * O * % * # * * o # 9 9 , 8 8 + O 8 9 * * = % O $ y 8 * 8 # O 4 r 9 5 , & @ & < 8 * O O o @ * , 5 , 8 O ",
"6 * $ O * 4 o O + * * * 4 O * * * # # # O # * + + * * O O * * O @ % % O * 6 < * 8 O o # 8 * # # & X @ * * & $ @ O # , * 8 # # O ",
"6 % $ $ * * . O $ * $ * 4 O * $ * # # * # * 4 # o + O . . * * . O $ % $ * 4 * * 5 O O * * # # + $ X & & $ $ # # O # # 5 8 8 4 O ",
"y * * $ 6 * . * * * $ = 6 O 4 * * # * * # * 9 , * * o . . * + . O + % $ * * $ % * O * q * * & = X . @ = O O # * # 5 5 , 8 8 * O ",
"7 * = * 6 * O 9 * 4 + * $ O * * , @ * * # * 7 9 9 * o . O * % X O + + $ * * + * 5 O # 8 < * < &   . @ > + O # * + * # # * # # O ",
"6 * * $ * 6 % 6 * 6 O * $ O = * * * * * # # 5 8 5 # O o + * 4 + O O $ $ = 6 * * % + + * < , & & X X & = # O * # O * 5 5 # # 4 O ",
"4 * 6 % * 6 + * * 6 % 4 * O * = * + * * & * 8 * * * * O % * = * * $ % % 4 4 % * * * * % , 8 = > @ O @ = * * , # O * # ; 5 8 # # "
};
