/* XPM */
static char *_d3c6d0b2c1140fb9c1089dccfa80ea4h2oXhnVNethour5J[] = {
/* columns rows colors chars-per-pixel */
"64 64 175 2 ",
"   c None",
".  c #0F080A",
"X  c #120E0E",
"o  c #12100F",
"O  c #0A0510",
"+  c #0F0B14",
"@  c #140F12",
"#  c #161214",
"$  c #181417",
"%  c #1B161B",
"&  c #1D191E",
"*  c #2E0C10",
"=  c #1E1520",
"-  c #1F1A22",
";  c #221B24",
":  c #251D29",
">  c #291E2E",
",  c #2B1E32",
"<  c #2A1E39",
"1  c #26212B",
"2  c #2B222F",
"3  c #2C2333",
"4  c #2C2A34",
"5  c #252138",
"6  c #2E233C",
"7  c #2E2A38",
"8  c #33253C",
"9  c #332C3C",
"0  c #322937",
"q  c #27323E",
"w  c #571315",
"e  c #610708",
"r  c #7E0000",
"t  c #45383C",
"y  c #7E2632",
"u  c #391D43",
"i  c #362642",
"p  c #382644",
"a  c #362A42",
"s  c #3A2B44",
"d  c #3E254A",
"f  c #3D2B4C",
"g  c #353040",
"h  c #3A3646",
"j  c #3A3A47",
"k  c #3B3549",
"l  c #3D3B4C",
"z  c #373A46",
"x  c #3E2E52",
"c  c #402D4E",
"v  c #42314E",
"b  c #4A3E4C",
"n  c #422E52",
"m  c #453156",
"M  c #493556",
"N  c #473458",
"B  c #4A355C",
"V  c #4B395D",
"C  c #443D55",
"Z  c #50365D",
"A  c #66364B",
"S  c #4E3660",
"D  c #4E3A62",
"F  c #513B64",
"G  c #593B64",
"H  c #563E69",
"J  c #5A3E6B",
"K  c #4D4745",
"L  c #434354",
"P  c #4A465D",
"I  c #444A5A",
"U  c #474559",
"Y  c #4E4463",
"T  c #4D4D66",
"R  c #464B64",
"E  c #514367",
"W  c #55426A",
"Q  c #5A416D",
"!  c #544C6D",
"~  c #594A6E",
"^  c #4B5061",
"/  c #4E5A6F",
"(  c #54536D",
")  c #525A6D",
"_  c #5D4571",
"`  c #5C4C73",
"'  c #575472",
"]  c #5B5374",
"[  c #5A5A75",
"{  c #5E5D7A",
"}  c #565777",
"|  c #66416E",
" . c #624674",
".. c #6A4573",
"X. c #624976",
"o. c #6F4877",
"O. c #6B4B7A",
"+. c #644E7B",
"@. c #61547A",
"#. c #6A537D",
"$. c #625A7D",
"%. c #5A6278",
"&. c #65616F",
"*. c #756F60",
"=. c #61627E",
"-. c #AC0506",
";. c #9F303F",
":. c #974D5E",
">. c #906178",
",. c #8B887F",
"<. c #784E80",
"1. c #665680",
"2. c #685581",
"3. c #665C82",
"4. c #6C5D83",
"5. c #765383",
"6. c #7A5284",
"7. c #765D88",
"8. c #7F598B",
"9. c #5D6480",
"0. c #5E6A88",
"q. c #656482",
"w. c #6D6484",
"e. c #6A668B",
"r. c #666B8B",
"t. c #696C8B",
"y. c #616A84",
"u. c #78688C",
"i. c #73678A",
"p. c #69748E",
"a. c #677690",
"s. c #6C7492",
"d. c #747391",
"f. c #747D93",
"g. c #727C9B",
"h. c #747499",
"j. c #825286",
"k. c #845589",
"l. c #855A8E",
"z. c #8A588F",
"x. c #8D5E94",
"c. c #925B94",
"v. c #896293",
"b. c #866A94",
"n. c #8F6C9A",
"m. c #866593",
"M. c #9A629C",
"N. c #94689C",
"B. c #996A9F",
"V. c #96649C",
"C. c #9E66A1",
"Z. c #9E6DA2",
"A. c #A166A2",
"S. c #A46BA5",
"D. c #A869A5",
"F. c #A96BA8",
"G. c #A770A8",
"H. c #AD73AE",
"J. c #B071AD",
"K. c #B673B2",
"L. c #BB74B5",
"P. c #7F8195",
"I. c #74819D",
"U. c #7683A2",
"Y. c #7985A4",
"T. c #7C8BA9",
"R. c #7A86A9",
"E. c #818EAD",
"W. c #8394B2",
"Q. c #B9B2A2",
"!. c #A1B5BF",
"~. c #CEC6A8",
"^. c #9EB2C3",
"/. c #DBDBCF",
"(. c #F1F0D4",
/* pixels */
"                                                                                                                                ",
"                                                                                                                                ",
"                                                                                                                                ",
"                                                                                                                                ",
"                                                                                                                                ",
"                                                                                                                                ",
"                                                                                                                                ",
"                                                                                                                                ",
"                                                                                                                                ",
"                                                                                                                                ",
"                                                                                                                                ",
"                                                                                                                                ",
"                                                                                                                                ",
"                                                                                                                                ",
"                                                                                                                                ",
"                                                                                                                                ",
"                                                                                                                                ",
"                                                  f f n n n m                                                                   ",
"                                                B H D B S B n                                                                   ",
"                                        d d u m 9.s.3.J F N n                                                                   ",
"                                        N D B E t.U.e. .F N n                                                                   ",
"                                    N E { t.t.e.e.4.2.X.J S f                                                                   ",
"                                    f ` g.T.T.g.1.Q Q Q H m n                                                                   ",
"                                d < 5 R U.W.I.t.+.G B s s                                                                       ",
"                              N n 6 % z a.U.r.{ ] Q s & $                                                                       ",
"                              } 3.A e w b / 0.t.3.~ g % X                                                                       ",
"                          c N 0.U.:.-.r * g 0.Y.s.[ k & # $ $                                                                   ",
"                          < x 9.g.>.;.y t I a.T.Y.r.b % 1 h k                                                                   ",
"                          $ > U y.d.d.d.f.g.I.Y.E.U.L $ 9 [ [ V c n n n n n n n                                                 ",
"                            % 7 P f.!.^.E.Y.T.Y.p.%.I j L T Y B N D E Y Y H F n                                                 ",
"                              @ 1 ,.(./.f.r.R.U.L 4 ^ p.) 4 2 d V ` { [ ' ` J S n c                                             ",
"                                # *.~.Q.&.! %.%.9 : ) U.) % $ p B ' q.i.u.4.` Q F m                                             ",
"                                  t K K 0 3 4 9 c Z $.t.I & = s N E #.B.H.m.[ ' Q F N n                                         ",
"                                    . + $ # X ; M @.#.] C 1 , f S F  .c.D.n.w.@. .J S n                                         ",
"                                            # ; P w.$.~ B s c Z J _ Q J ..l.Z.x. .H B n                                         ",
"                                            # 1 L [ @.X.F m M Q  ._ J x x j.L.C. .F B n                                         ",
"                                                3 j %.h.' 3 8 F X. .Q f f j.L.A. .F V n                                         ",
"                                                . - ) I.) ; 2 F  ._ H M B j.J.V.X.F B n                                         ",
"                                                    h I l 8 f H _ S F o.l.b.b.7.X.H S n                                         ",
"                                                    $ $ 3 c D Q J x Z c.K.n.$.' _ H B n                                         ",
"                                                      # > c B S S N J M.L.N.] ! H B N                                           ",
"                                                    $ % 6 c N n N D X.C.K.x._ D N n                                             ",
"                                                    6 , s m B N B D O.A.K.z.F n 8 6                                             ",
"                                                n n n x M H Q W J H O.C.K.k.m 6 : &                                             ",
"                                                n S S S  .j.l.l.5.` ] m.Z.6.V 8 & #                                             ",
"                                                n N D J j.F.K.K.Z.4.[ %.w.1._ v ; $ & %                                         ",
"                                                i f D X.8.C.F.A.C.b.i.{ ( Y D a ; % & ; 8                                       ",
"                                                % 1 U $.4.2.o. .5.S.G.5.N a 3 - & & & : s N                                     ",
"                                                X & l [ ] E J  .6.A.c.| i : $ $ & & % : s f                                     ",
"                                                o & 9 V D F 2.C.A.6.J f : =   $ & &     : >                                     ",
"                                                ; : 8 f F  .z.F.c.G i - $       & -     $ %                                     ",
"                                              m f p p f o.M.M.o.G s - %                                                         ",
"                                            c N m n n n 6.H.V.F 8 ; $                                                           ",
"                                            3 9 f n N F #.b.7.D i > $                                                           ",
"                                            $ ; i m H _ @.{ ( B p : %                                                           ",
"                                            # ; v ( ] 1.] W C s , :                                                             ",
"                                            # 1 P =.q.{ ! N i : $                                                               ",
"                                            o 1 Y $.( L k 8 > &                                                                 ",
"                                            # : V | v ; & ; -                                                                   ",
"                                            3 8 v v 8 # X #                                                                     ",
"                                            n m 8 ; &                                                                           ",
"                                            V n : $                                                                             ",
"                                                                                                                                ",
"                                                                                                                                "
};
