/* XPM */
static char *daeac2a6ff1e4c6891e92e4337e4d1a0sEX9a1mbDPtg06c9[] = {
/* columns rows colors chars-per-pixel */
"64 64 175 2 ",
"   c None",
".  c #0F080A",
"X  c #120E0E",
"o  c #12100F",
"O  c #0A0510",
"+  c #0F0B14",
"@  c #140F12",
"#  c #161214",
"$  c #181417",
"%  c #1B161B",
"&  c #1D191E",
"*  c #2E0C10",
"=  c #1E1520",
"-  c #1F1A22",
";  c #221B24",
":  c #251D29",
">  c #291E2E",
",  c #2B1E32",
"<  c #2A1E39",
"1  c #26212B",
"2  c #2B222F",
"3  c #2C2333",
"4  c #2C2A34",
"5  c #252138",
"6  c #2E233C",
"7  c #2E2A38",
"8  c #33253C",
"9  c #332C3C",
"0  c #322937",
"q  c #27323E",
"w  c #571315",
"e  c #610708",
"r  c #7E0000",
"t  c #45383C",
"y  c #7E2632",
"u  c #391D43",
"i  c #362642",
"p  c #382644",
"a  c #362A42",
"s  c #3A2B44",
"d  c #3E254A",
"f  c #3D2B4C",
"g  c #353040",
"h  c #3A3646",
"j  c #3A3A47",
"k  c #3B3549",
"l  c #3D3B4C",
"z  c #373A46",
"x  c #3E2E52",
"c  c #402D4E",
"v  c #42314E",
"b  c #4A3E4C",
"n  c #422E52",
"m  c #453156",
"M  c #493556",
"N  c #473458",
"B  c #4A355C",
"V  c #4B395D",
"C  c #443D55",
"Z  c #50365D",
"A  c #66364B",
"S  c #4E3660",
"D  c #4E3A62",
"F  c #513B64",
"G  c #593B64",
"H  c #563E69",
"J  c #5A3E6B",
"K  c #4D4745",
"L  c #434354",
"P  c #4A465D",
"I  c #444A5A",
"U  c #474559",
"Y  c #4E4463",
"T  c #4D4D66",
"R  c #464B64",
"E  c #514367",
"W  c #55426A",
"Q  c #5A416D",
"!  c #544C6D",
"~  c #594A6E",
"^  c #4B5061",
"/  c #4E5A6F",
"(  c #54536D",
")  c #525A6D",
"_  c #5D4571",
"`  c #5C4C73",
"'  c #575472",
"]  c #5B5374",
"[  c #5A5A75",
"{  c #5E5D7A",
"}  c #565777",
"|  c #66416E",
" . c #624674",
".. c #6A4573",
"X. c #624976",
"o. c #6F4877",
"O. c #6B4B7A",
"+. c #644E7B",
"@. c #61547A",
"#. c #6A537D",
"$. c #625A7D",
"%. c #5A6278",
"&. c #65616F",
"*. c #756F60",
"=. c #61627E",
"-. c #AC0506",
";. c #9F303F",
":. c #974D5E",
">. c #906178",
",. c #8B887F",
"<. c #784E80",
"1. c #665680",
"2. c #685581",
"3. c #665C82",
"4. c #6C5D83",
"5. c #765383",
"6. c #7A5284",
"7. c #765D88",
"8. c #7F598B",
"9. c #5D6480",
"0. c #5E6A88",
"q. c #656482",
"w. c #6D6484",
"e. c #6A668B",
"r. c #666B8B",
"t. c #696C8B",
"y. c #616A84",
"u. c #78688C",
"i. c #73678A",
"p. c #69748E",
"a. c #677690",
"s. c #6C7492",
"d. c #747391",
"f. c #747D93",
"g. c #727C9B",
"h. c #747499",
"j. c #825286",
"k. c #845589",
"l. c #855A8E",
"z. c #8A588F",
"x. c #8D5E94",
"c. c #925B94",
"v. c #896293",
"b. c #866A94",
"n. c #8F6C9A",
"m. c #866593",
"M. c #9A629C",
"N. c #94689C",
"B. c #996A9F",
"V. c #96649C",
"C. c #9E66A1",
"Z. c #9E6DA2",
"A. c #A166A2",
"S. c #A46BA5",
"D. c #A869A5",
"F. c #A96BA8",
"G. c #A770A8",
"H. c #AD73AE",
"J. c #B071AD",
"K. c #B673B2",
"L. c #BB74B5",
"P. c #7F8195",
"I. c #74819D",
"U. c #7683A2",
"Y. c #7985A4",
"T. c #7C8BA9",
"R. c #7A86A9",
"E. c #818EAD",
"W. c #8394B2",
"Q. c #B9B2A2",
"!. c #A1B5BF",
"~. c #CEC6A8",
"^. c #9EB2C3",
"/. c #DBDBCF",
"(. c #F1F0D4",
/* pixels */
"                                                                                                                                ",
"                                                                                                                                ",
"                                                                                                                                ",
"                                                                                                                                ",
"                                                                                                                                ",
"                                                                                                                                ",
"                                                                                                                                ",
"                                                                                                                                ",
"                                                                                                                                ",
"                                                                                                                                ",
"                                                                                                                                ",
"                                                                                                                                ",
"                                                                                                                                ",
"                                                                                                                                ",
"                                                                                                                                ",
"                                                                                                                                ",
"                                                                                                                                ",
"                                                                  m n n n n f                                                   ",
"                                                                  n B B B F F D                                                 ",
"                                                                  n B F H 3.t.9.m u d d                                         ",
"                                                                  x N F  .e.Y.t.E B D N                                         ",
"                                                                  n S J  .2.4.e.e.t.t.{ W m                                     ",
"                                                                  n n H Q J J 1.g.T.T.g.` f                                     ",
"                                                                      s s M H @.r.U.W.U.R 5 < d                                 ",
"                                                                      # & s Q +.{ r.Y.a.z % 6 n N                               ",
"                                                                      X % g ~ q.r.0./ K w e A 3.}                               ",
"                                                                  % % $ - h [ d.U.0.g * r -.:.U.0.B c                           ",
"                                                                  k k : $ l t.Y.R.a.I t y ;.>.g.9.c ,                           ",
"                                                m n n n n n x c V [ [ 4 $ L I.E.Y.I.I.f.d.d.d.=.U 1 $                           ",
"                                                m F F Y Y E D B B Y T L j I %.a.I.T.U.E.!.!.P.K 6 %                             ",
"                                            f n Z J ` ' } { ` V s > 4 ) s.^ 2 L I.Y.=.E./.(.E.; @                               ",
"                                            m F Q ` 4.u.i.q.' B p % & ) Y.) 1 9 %.=.T &.Q.~.*.@                                 ",
"                                        n N F Q ! [ b.H.C.+.F B p = & I t.$.V v 9 4 4 0 K K t                                   ",
"                                        n S J X.$.w.n.S.c.+.F S c , 1 C ] #.+.M = X # # + .                                     ",
"                                        c B H  .v.Z.z...Q Q _ H F c f V ~ #.q.P : #                                             ",
"                                        n B F  .M.L.j.n x Q _  .H m c F X.@.{ L 1 #                                             ",
"                                        n N F  .A.L.k.f f W  .X.F 8 3 ' h.{ h 2                                                 ",
"                                        n B F +.V.J.k.B B J _ _ F 1 1 ) I.) & .                                                 ",
"                                        n D J X.7.b.v.k.o.F S _ W c 8 l I j                                                     ",
"                                        n B F _ ' %.N.L.c.B m H Q Z v 3 % #                                                     ",
"                                          N B H ! ] n.L.M.J N B V B c > #                                                       ",
"                                            n N F _ x.K.M.O.D N c m n 3 % #                                                     ",
"                                            8 i f F z.L.A.O.F B N B N s 3 8                                                     ",
"                                            % ; 6 m k.K.A.X.H H W Q H B n n n n                                                 ",
"                                            $ - 8 F 6.B.m.@.` 5.l.l.6. .S S S n                                                 ",
"                                        % & $ ; v _ #.q.=.} w.Z.K.L.F.8.J S B n                                                 ",
"                                      8 & ; % ; a V Y ( $.i.b.C.A.F.A.l.` D s i                                                 ",
"                                    B s : & % & - 3 a m 5.G.S.6. .O.O.4.$.U 1 %                                                 ",
"                                    f s : % & & $ $ : i | c.A.6. .H H ] [ l & X                                                 ",
"                                    1 :     % & %   = : s H j.A.C.5.D D V 9 & o                                                 ",
"                                    % &     - &       $ - 6 G M.F.l. .S f 8 : ;                                                 ",
"                                                        = - 9 G <.V.C...f i p d m                                               ",
"                                                          $ : 6 F M.H.<.n n n N N f                                             ",
"                                                          $ : i S 7.b.#.F B n c 8 3                                             ",
"                                                          % > p B ( $.@.Q F m 8 ; $                                             ",
"                                                            ; , a C ! ] $.$.! C ; #                                             ",
"                                                              $ : i N ! $.q.=.P 1 #                                             ",
"                                                                % , 8 k L ( $.P 1 #                                             ",
"                                                                  - ; & ; v  .V : #                                             ",
"                                                                    $ X $ 3 v v 8 3                                             ",
"                                                                          & ; 8 m v                                             ",
"                                                                            # > n D                                             ",
"                                                                                                                                ",
"                                                                                                                                "
};
