/* XPM */
static char *_2f3140c24b64c949b324bfe09b4820d7VRneK1TR4MaBmzu[] = {
/* columns rows colors chars-per-pixel */
"64 64 136 2 ",
"   c None",
".  c #120C0E",
"X  c #140D12",
"o  c #161315",
"O  c #181317",
"+  c #17121A",
"@  c #1B161B",
"#  c #1D181F",
"$  c #20131E",
"%  c #2B181C",
"&  c #1F1920",
"*  c #201722",
"=  c #221C24",
"-  c #261D2A",
";  c #281E2E",
":  c #271D36",
">  c #291F30",
",  c #311F35",
"<  c #252229",
"1  c #2A242F",
"2  c #2C2232",
"3  c #2E2B36",
"4  c #33243C",
"5  c #3A2339",
"6  c #342A3D",
"7  c #33313D",
"8  c #44161A",
"9  c #49181F",
"0  c #2B2D42",
"q  c #362641",
"w  c #372941",
"e  c #3A2A45",
"r  c #362748",
"t  c #3D264B",
"y  c #372848",
"u  c #3E2B4C",
"i  c #363243",
"p  c #393445",
"a  c #3D3B4B",
"s  c #3E2D50",
"d  c #402D4E",
"f  c #44314F",
"g  c #422E52",
"h  c #453155",
"j  c #4A3557",
"k  c #413C51",
"l  c #473258",
"z  c #4B355B",
"x  c #4C3A5D",
"c  c #51375F",
"v  c #563B58",
"b  c #5F3F5E",
"n  c #4E3861",
"m  c #523B64",
"M  c #553E68",
"N  c #5B3D69",
"B  c #34404F",
"V  c #374353",
"C  c #434254",
"Z  c #43435D",
"A  c #4D425E",
"S  c #5B575D",
"D  c #6B6458",
"F  c #4E4164",
"G  c #4E4D63",
"H  c #56436C",
"J  c #5A426D",
"K  c #554C6F",
"L  c #505167",
"P  c #54536B",
"I  c #5E4471",
"U  c #534D70",
"Y  c #5A4B72",
"T  c #5C5574",
"R  c #565D72",
"E  c #5A5D73",
"W  c #5C5778",
"Q  c #5E5B7B",
"!  c #64426E",
"~  c #624574",
"^  c #6B4775",
"/  c #604B76",
"(  c #644A7A",
")  c #63527C",
"_  c #625A7C",
"`  c #5C637A",
"'  c #61617E",
"]  c #860000",
"[  c #A4131A",
"{  c #853948",
"}  c #9D5365",
"|  c #645E81",
" . c #6B5A87",
".. c #745082",
"X. c #7E5386",
"o. c #725E87",
"O. c #7E5589",
"+. c #646683",
"@. c #656A86",
"#. c #676588",
"$. c #6B668B",
"%. c #6A6F8C",
"&. c #756E8E",
"*. c #786B89",
"=. c #6A738D",
"-. c #6F6D91",
";. c #6B7592",
":. c #6E7C97",
">. c #717295",
",. c #75769A",
"<. c #737D9C",
"1. c #787DA0",
"2. c #85568B",
"3. c #83588D",
"4. c #8D5B92",
"5. c #915D94",
"6. c #866D97",
"7. c #9A639C",
"8. c #9F66A2",
"9. c #A56DA7",
"0. c #A86FA9",
"q. c #B270AF",
"w. c #BE77B9",
"e. c #BC79B9",
"r. c #74819F",
"t. c #7683A2",
"y. c #7A87A6",
"u. c #7988A5",
"i. c #7C8BA9",
"p. c #9A9483",
"a. c #818A98",
"s. c #95949E",
"d. c #8393B2",
"f. c #8A98B1",
"g. c #ADC1CA",
"h. c #FFFBDB",
/* pixels */
"                                                                                                                                ",
"                                                                                                                                ",
"                                                                                                                                ",
"                                                                                                                                ",
"                                                                                                                                ",
"                                                                                                                                ",
"                                                                                                                                ",
"                                                                                                                                ",
"                                                                                                                                ",
"                                                                                                                                ",
"                                                                                                                                ",
"                                                                                  g l h                                         ",
"                                                                                g n l 4                                         ",
"                                                                          h z g n I e +                                         ",
"                                                                        u h H 2.8.9.v o @                                       ",
"                                                                        l J ..9.e.q.b o @ #                                     ",
"                                                                    t g M 4.0.6.o.^ d @                                         ",
"                                                                    h J ..5.7._ Z 4 - @                                         ",
"                                                                y s n O.q.X.z z e = #                                           ",
"                                                                ! O.3.5.5.N r g 4 @                                             ",
"                                                              g 4.e.w.4.h s g l e #                                             ",
"                                                              M O.5.2.^ z n m g u 4 -                                           ",
"                                                              I I M g z J ~ M z g l 4 @                                         ",
"                                                          g n ~ I m g g c z n M I I p @                                         ",
"                                                          g M I I J l u h u h n M M 6 @                                         ",
"                                                    t d g g m J I J h g h h s 2 1 1 -                                           ",
"                                                  F Y H j e h I I m n l g h u = o o                                             ",
"                                            d t t W t. .z = 6 I n l J m g g d < @                                               ",
"                                            K | Q #.%. .m $ 2 m l g m m n z u - o                                               ",
"                                        t z %.i.i.$.J ~ c = ; g h g g n J m u - @                                               ",
"                                      t : 0 ;.d.;._ M d 6 6 u g g g s z I m d e 2 &                                             ",
"                                      z 5 % ` :.+.) J 2 # e g g h g h n N x g l e =                                             ",
"                                  d K ;.{ ] 8 V ;.>.T 3 o = 4 g g h M M z l h z u = o                                           ",
"                                  q U t.} [ 9 V <.t.` 3 O < 4 e g x N c y d h u 4 &                                             ",
"                                  # 7 +.&.*.=.:.i.<.` 2 = P C = g J n q = w g 2 &                                               ",
"                                    < C r.g.f.1.,.` C a C G a ; j M e - + 2 q = o                                               ",
"                                      O p.h.s.W +.k $ ` =.1 < g z d = O # # # = #                                               ",
"                                        D p.S i i 7 a +._ = ; l q 2 6 d e - . o                                                 ",
"                                          + @ O @ a ' ) c = ; d ; - M ( I i @                                                   ",
"                                            . 3 R @.+._ A $ X - 6 j M ~ ~ W ` x                                                 ",
"                                            X 7 =.>._ @.E 7 = < x ( I J Y >.t.Y g                                               ",
"                                                3 A ) ,.u.=.` L T T T T T +.@./ m l                                             ",
"                                                . 2 J Q =.<.,.+.+.%.=.=.%._ K J m d e                                           ",
"                                                      < 6 Y ( ~ >.i.y.i.y.W g z e - 4 z                                         ",
"                                                        $ c z f G R R R R k 4 4 > O 2 w                                         ",
"                                                              # = $ # # # # # & $   # #                                         ",
"                                                                            @ @ @                                               ",
"                                                                              # #                                               ",
"                                                                                                                                ",
"                                                                                                                                ",
"                                                                                                                                ",
"                                                                                                                                ",
"                                                                                                                                ",
"                                                                                                                                ",
"                                                                                                                                ",
"                                                                                                                                ",
"                                                                                                                                ",
"                                                                                                                                ",
"                                                                                                                                ",
"                                                                                                                                ",
"                                                                                                                                ",
"                                                                                                                                ",
"                                                                                                                                ",
"                                                                                                                                "
};
