/* XPM */
static char *_93ab8548a1c435ff388ed6023e7a92eeenb7dpWtXbk1tUM[] = {
/* columns rows colors chars-per-pixel */
"64 64 143 2 ",
"   c None",
".  c #120C0E",
"X  c #140D12",
"o  c #161315",
"O  c #181317",
"+  c #17121A",
"@  c #1B161B",
"#  c #1D181F",
"$  c #20131E",
"%  c #2B181C",
"&  c #1F1920",
"*  c #201722",
"=  c #221C24",
"-  c #261D2A",
";  c #281E2E",
":  c #271D36",
">  c #291F30",
",  c #311F35",
"<  c #252229",
"1  c #2A242F",
"2  c #2C2232",
"3  c #2E2B36",
"4  c #33243C",
"5  c #3A2339",
"6  c #342A3D",
"7  c #33313D",
"8  c #44161A",
"9  c #49181F",
"0  c #2B2D42",
"q  c #362641",
"w  c #372941",
"e  c #3A2A45",
"r  c #362748",
"t  c #3D264B",
"y  c #372848",
"u  c #3E2B4C",
"i  c #363243",
"p  c #393445",
"a  c #3D3B4B",
"s  c #3E2D50",
"d  c #402D4E",
"f  c #44314F",
"g  c #422E52",
"h  c #453155",
"j  c #4A3557",
"k  c #413C51",
"l  c #473258",
"z  c #4B355B",
"x  c #4C3A5D",
"c  c #51375F",
"v  c #563B58",
"b  c #5F3F5E",
"n  c #4E3861",
"m  c #523B64",
"M  c #553E68",
"N  c #5B3D69",
"B  c #34404F",
"V  c #374353",
"C  c #434254",
"Z  c #43435D",
"A  c #4D425E",
"S  c #5B575D",
"D  c #6B6458",
"F  c #4E4164",
"G  c #4E4D63",
"H  c #56436C",
"J  c #5A426D",
"K  c #554C6F",
"L  c #505167",
"P  c #54536B",
"I  c #5E4471",
"U  c #534D70",
"Y  c #5A4B72",
"T  c #5C5574",
"R  c #565D72",
"E  c #5A5D73",
"W  c #5C5778",
"Q  c #5E5B7B",
"!  c #64426E",
"~  c #624574",
"^  c #6B4775",
"/  c #604B76",
"(  c #644A7A",
")  c #63527C",
"_  c #625A7C",
"`  c #5C637A",
"'  c #61617E",
"]  c #860000",
"[  c #A4131A",
"{  c #853948",
"}  c #9D5365",
"|  c #645E81",
" . c #6B5A87",
".. c #745082",
"X. c #7E5386",
"o. c #725E87",
"O. c #7E5589",
"+. c #646683",
"@. c #656A86",
"#. c #676588",
"$. c #6B668B",
"%. c #6A6F8C",
"&. c #756E8E",
"*. c #786B89",
"=. c #6A738D",
"-. c #6F6D91",
";. c #6B7592",
":. c #6E7C97",
">. c #707394",
",. c #717195",
"<. c #75769A",
"1. c #707C99",
"2. c #747D9D",
"3. c #787DA0",
"4. c #85568B",
"5. c #83588D",
"6. c #8D5B91",
"7. c #8C5C93",
"8. c #915C92",
"9. c #915E96",
"0. c #866D97",
"q. c #98609B",
"w. c #9B669D",
"e. c #9F66A2",
"r. c #A56DA7",
"t. c #A86FA9",
"y. c #B270AF",
"u. c #BE77B9",
"i. c #BC79B9",
"p. c #75819F",
"a. c #73819E",
"s. c #7683A2",
"d. c #7A87A6",
"f. c #7988A5",
"g. c #7C8CA9",
"h. c #7C8AA9",
"j. c #9A9483",
"k. c #818A98",
"l. c #95949E",
"z. c #8393B2",
"x. c #8A98B1",
"c. c #ADC1CA",
"v. c #FFFBDB",
/* pixels */
"                                                                                                                                ",
"                                                                                                                                ",
"                                                                                                                                ",
"                                                                                                                                ",
"                                                                                                                                ",
"                                                                                                                                ",
"                                                                                                                                ",
"                                                                                                                                ",
"                                                                                                                                ",
"                                                                                                                                ",
"                                                                                                                                ",
"                                        h l g                                                                                   ",
"                                        4 l n g                                                                                 ",
"                                        @ e I m h l h                                                                           ",
"                                      O o v e.e.4.H h u                                                                         ",
"                                    # @ o b y.i.r...J l                                                                         ",
"                                        @ e ^ o.0.t.7.M g d                                                                     ",
"                                        @ - q Z _ w.9...J g                                                                     ",
"                                          # = e z l X.y.4.n s r                                                                 ",
"                                            @ q g r N 8.7.5.O.!                                                                 ",
"                                            & w l g u h 7.u.u.7.h                                                               ",
"                                          - 4 u g m n n ^ 4.9.O.M                                                               ",
"                                        @ 4 h h z J ~ J l g M / I                                                               ",
"                                        @ e I I M x z z g g m I I n g                                                           ",
"                                        @ 6 H N c h g s g l H I J M g                                                           ",
"                                          - 1 1 2 d h h u l J ~ J m g g d d                                                     ",
"                                            o o & u h g l z m N I h e l H Y F                                                   ",
"                                              O - u h g M J l m I 6 = z  .2.W d t d                                             ",
"                                              o - u z n M n g z m 1 # m  .-.#.Q | U                                             ",
"                                              @ < u n I x g g h g ; = c ~ J $.d.h.=.z t                                         ",
"                                            # 2 e u m I z s g g g u 4 6 d M | ;.z.;.0 : t                                       ",
"                                            = e l g n N n h g g g g e $ 1 J ) +.1.E % 5 x                                       ",
"                                          @ = e z g l z M M g g l 4 = o 3 T >.=.V 8 ] { ;.K d                                   ",
"                                            & 4 g g u t x J c g e 4 < O 3 _ s.a.B 9 [ } s.U q                                   ",
"                                              & 2 g w = w n J f = C P # 1 _ 2.f.:.=.*.&.+.p @                                   ",
"                                              o - q > O - e N l - a G C V C ` 2.p.x.c.p.k <                                     ",
"                                              # $ # # # O - d l d - 1 =.` $ k ' W l.v.j.@                                       ",
"                                                o . - p d 6 1 6 l - < _ ' k 7 7 i S j.D                                         ",
"                                                  # e ~ ( M - ; g 1 < x ) ' C @ @ O +                                           ",
"                                                x R _ J ~ J j 6 - X $ A _ ' @.R 3 X                                             ",
"                                              g Y s.,.J J I ( j - = 7 R @._ >.=.7 .                                             ",
"                                            l n / @.@._ W E _ P L ` ;.s.<.) A 3                                                 ",
"                                          u d m J K Q %.%.%.%.+.+.,.p.=.Q J , .                                                 ",
"                                        l 4 = e l h W d.h.d.h.,.~ ( Y 6 -                                                       ",
"                                        w 2 @ 2 4 4 k R R R R G f c c $                                                         ",
"                                        @ $   # = # @ $ @ = # = @                                                               ",
"                                              @ @ @                                                                             ",
"                                              # #                                                                               ",
"                                                                                                                                ",
"                                                                                                                                ",
"                                                                                                                                ",
"                                                                                                                                ",
"                                                                                                                                ",
"                                                                                                                                ",
"                                                                                                                                ",
"                                                                                                                                ",
"                                                                                                                                ",
"                                                                                                                                ",
"                                                                                                                                ",
"                                                                                                                                ",
"                                                                                                                                ",
"                                                                                                                                ",
"                                                                                                                                ",
"                                                                                                                                "
};
