/* XPM */
static char *cb1c8e94d8e14a8cd63e615764615a85C04z7KrAZJY20I5o[] = {
/* columns rows colors chars-per-pixel */
"64 64 5 1 ",
"  c None",
". c black",
"X c #332805",
"o c #453608",
"O c #5E4908",
/* pixels */
"          ..............................................        ",
"          .OOOOOOOOOOOOOOOOOOOOOOOOOOOOOOOOOOOOOOOOOOOO.        ",
"          .oooooooooooooooooooooooooooooooooooooooooooo.        ",
"          .oo........................................oo.        ",
"          .oo.oooooooooooooooooooooooooooooooooooooo.oo.        ",
"          .oo.oooXXXXXXXXXXXXXXXXXXXXXXXXXXXXXXXXXXo.oo.        ",
"          .oo.oooXXXXXXXXXXXXXXXXXXXXXXXXXXXXXXXXXXo.oO.        ",
"          .oo.oooXXXXXXXXXXXXXXXXXXXXXXXXXXXXXXXXXXo.oO.        ",
"          .oo.oooXXXXXXXXXXXXXXXXXXXXXXXXXXXXXXXXXXo.oO.        ",
"          .oo.oooXXXXXoooooooooooooooooooooooXXXXXXo.oO.        ",
"          .oo.oooXXXXXoXXXXXXXXXXXXXXXXXXXXXoXXXXXXo.oO.        ",
"          .oo.oooXXXXXoXXXXXXXXXXXXXXXXXXXXXoXXXXXXo.oO.        ",
"          .oo..oooXXXXoXXXXXXXXXXXXXXXXXXXXXoXXXXXXo.oO.        ",
"          .oo...ooXXXXoXXXXXXXXXXXXXXXXXXXXXoXXXXXXo.oO.        ",
"          .oo....oXXXXoXXXXXXXXXXXXXXXXXXXXXoXXXXXXo.oO.        ",
"          .oo....oXXXXoXXXXXXXXXXXXXXXXXXXXXoXXXXXXo.oO.        ",
"          .oo....oXXXXoXXXXXXXXXXXXXXXXXXXXXoXXXXXXo.oO.        ",
"          .oo....oXXXXoXXXXXXXXXXXXXXXXXXXXXoXXXXXXo.oO.        ",
"          .oo...ooXXXXoXXXXXXXXXXXXXXXXXXXXXoXXXXXXo.oO.        ",
"          .oo..ooXXXXXoXXXXXXXXXXXXXXXXXXXXXoXXXXXXo.oO.        ",
"          .oo.oooXXXXXoXXXXXXXXXXXXXXXXXXXXXoXXXXXXo.oO.        ",
"          .oo.oooXXXXXoXXXXXXXXXXXXXXXXXXXXXoXXXXXXo.oO.        ",
"          .oo.oooXXXXXoXXXXXXXXXXXXXXXXXXXXXoXXXXXXo.oO.        ",
"          .oo.oooXXXXXoXXXXXXXXXXXXXXXXXXXXXoXXXXXXo.oO.        ",
"          .oo.oooXXXXXoXXXXXXXXXXXXXXXXXXXXXoXXXXXXo.oO.        ",
"          .oo.oooXXXXXoooooooooooooooooooooooXXXXXXo.oO.        ",
"          .oo.oooXXXXXXXXXXXXXXXXXXXXXXXXXXXXXXXXXXo.oO.        ",
"          .oo.oooXXXXXXXXXXXXXXXXXXXXXXXXXXXXXXXXXXo.oO.        ",
"          .oo.oooXXXXXXXXXXXXXXXXXXXXXXXXXXXXXXXXXXo.oO.        ",
"          .oo.oooXXXXXXXXXXXXXXXXXXXXXXXXXXXXXXXXXXo.oO.        ",
"          .oo.oooXXXXXXXXXXXXXXXXXXXXXXXXXXXXXXXXXXo.oO.        ",
"          .oo.oooXXXXXXXXXXXXXXXXXXXXXXXXXXXXXXXXXXo.oO.        ",
"          .oo.oooXXXXXXXXXXXXXXXXXXXXXXXXXXXXX...XXo.oO.        ",
"          .oo.oooXXXXXooooooooooooooooooooooo.....oo.oO.        ",
"          .oo.oooXXXXXooooooooooooooooooooooo.....oo.oO.        ",
"          .oo.oooXXXXXooooooooooooooooooooooo.....oo.oO.        ",
"          .oo.oooXXXXXXXXXXXXXXXXXXXXXXXXXXXXX...XXo.oO.        ",
"          .oo.oooXXXXXXXXXXXXXXXXXXXXXXXXXXXXXXXoXXo.oO.        ",
"          .oo.oooXXXXXXXXXXXXXXXXXXXXXXXXXXXXXXXoXXo.oO.        ",
"          .oo.oooXXXXXXXXXXXXXXXXXXXXXXXXXXXXXXXoXXo.oO.        ",
"          .oo.oooXXXXXXXXXXXXXXXXXXXXXXXXXXXXXXXoXXo.oO.        ",
"          .oo.oooXXXXXXXXXXXXXXXXXXXXXXXXXXXXXXXoXXo.oO.        ",
"          .oo.oooXXXXXXXXXXXXXXXXXXXXXXXXXXXXXXXoXXo.oO.        ",
"          .oo.oooXXXXXXXXXXXXXXXXXXXXXXXXXXXXXXXoXXo.oO.        ",
"          .oo.oooXXXXXXXXXXXXXXXXXXXXXXXXXXXXXXXoXXo.oO.        ",
"          .oo.oooXXXXXoooooooooooooooooooooooXXXoXXo.oO.        ",
"          .oo.oooXXXXXoXXXXXXXXXXXXXXXXXXXoooXXXoXXo.oO.        ",
"          .oo.oooXXXXXoXXXXXXXXXXXXXXXXXXXoooXXXoXXo.oO.        ",
"          .oo.oooXXXXXoXXXXXXXXXXXXXXXXXXXoooXXXoXXo.oO.        ",
"          .oo.oooXXXXXoXXXXXXXXXXXXXXXXXXXoooXXXoXXo.oO.        ",
"          .oo.oooXXXXXoXXXXXXXXXXXXXXXXXXXoooXXXoXXo.oO.        ",
"          .oo..ooXXXXXoXXXXXXXXXXXXXXXXXXXoooXXXoXXo.oO.        ",
"          .oo...oXXXXXoXXXXXXXXXXXXXXXXXXXoooXXXoXXo.oO.        ",
"          .oo....XXXXXoXXXXXXXXXXXXXXXXXXXoooXXXoXXo.oO.        ",
"          .oo....XXXXXoXXXXXXXXXXXXXXXXXXXoooXXXoXXo.oO.        ",
"          .oo....XXXXXoXXXXXXXXXXXXXXXXXXXoooXXXoXXo.oO.        ",
"          .oo....XXXXXoXXXXXXXXXXXXXXXXXXXoooXXXoXXo.oO.        ",
"          .oo...oXXXXXoXXXXXXXXXXXXXXXXXXXoooXXXoXXo.oO.        ",
"          .oo..ooXXXXXoooooooooooooooooooooooXXXoXXo.oO.        ",
"          .oo.oooXXXXXXXXXXXXXXXXXXXXXXXXXXXXXXXXXXo.oO.        ",
"          .oo.oooooooooooooooooooooooooooooooooooooo.oO.        ",
"          .oo.oooooooooooooooooooooooooooooooooooooo.oO.        ",
"          .oo........................................oO.        ",
"          .oo.oooooooooooooooooooooooooooooooooooooo.oO.        "
};
