/* XPM */
static char *bef06009670a4d27a0ee8b0072b772b4Kd5oHRB5Pn1wdK7N[] = {
/* columns rows colors chars-per-pixel */
"64 64 45 1 ",
"  c None",
". c black",
"X c #28041A",
"o c #111623",
"O c #171D3F",
"+ c #360A20",
"@ c #420F09",
"# c #512915",
"$ c #491022",
"% c #580839",
"& c #262E4B",
"* c #222A5C",
"= c #5A2C48",
"- c #3B485E",
"; c #37446E",
": c #7D5767",
"> c #902015",
", c #D22F1E",
"< c #AE582D",
"1 c #E04929",
"2 c #F16737",
"3 c #800C53",
"4 c #9D2348",
"5 c #AB1F65",
"6 c #E6336A",
"7 c #8B7647",
"8 c #84597F",
"9 c #B84474",
"0 c #B47961",
"q c #F35979",
"w c #EE687D",
"e c #AE9671",
"r c #FF8142",
"t c #CCAC68",
"y c #566A89",
"u c #667692",
"i c #F96B80",
"p c #7B90A5",
"a c #8B9A9A",
"s c #9DB0BD",
"d c #CAB79C",
"f c #F7A692",
"g c #FFDBA5",
"h c #A7BCC5",
"j c #CCE2E1",
/* pixels */
"                                                                ",
"                                                                ",
"                                                                ",
"                                                                ",
"                                                                ",
"                                                                ",
"                                                                ",
"                                                                ",
"                                                                ",
"                                                                ",
"                                                                ",
"                                                                ",
"                                                                ",
"                                                                ",
"                                                                ",
"                                                                ",
"                                                                ",
"                                                                ",
"                                                                ",
"                                                                ",
"                            ....                                ",
"                           .444.                                ",
"                           $664.                                ",
"                          .666....                              ",
"                          .66ii666.                             ",
"                         .466iiq664.                            ",
"                         .66wqii644.                            ",
"                         .66g6ii6...                            ",
"                        .55gg66666.                             ",
"                        .+5ggf66664.                            ",
"                        ..5gggw6646.                            ",
"                         .5gggg66.6.                            ",
"                         .5gggg666..                            ",
"                         .+gggg666.                             ",
"                         .odddd969$                             ",
"                         .;yyyyy6y6. ....                       ",
"                         .yyyyyy6yyj.yyyy.                      ",
"                        .-yyyyyy8yhp-yyyy>.                     ",
"                        .yyyyyyyyyjyyy--:,@                     ",
"                  ...   .yyyyyyyyyjyyy..,,,.                    ",
"                  .tt.  .jyyyyyyjj;...  .,gg.                   ",
"                  .tt%..&uhyyyhhuu;.     @gg.                   ",
"                  .703Xo;;apppss;;&.     .ee.                   ",
"                   .333;;;.jjj;;;;.       ...                   ",
"                    .3;;;;..;;;;;;.                             ",
"                     Xo;;o .;;;;;;.                             ",
"                     ..&&. .;;;;;;.                             ",
"                       ..  .;;;;;;.                             ",
"                           .rr,3333.                            ",
"                          .<rr,3333. ...                        ",
"                          #rr2>%333X X..                        ",
"                         .rrr,..3333.3...                       ",
"                         .rr,.  .333333...                      ",
"                        .<r1@    X33333%..                      ",
"                        .22,.    .%333%%..                      ",
"                        .,,,.     .333..                        ",
"                        .,,,.      ...                          ",
"                         @,,.                                   ",
"                         .,,@                                   ",
"                         .,,,.                                  ",
"                         .,,,.                                  ",
"                        .O===.                                  ",
"                        .****.                                  ",
"                        .****.                                  "
};
