/* XPM */
static char *d5ba1540cc2b4aa8ad4d0a86c7e249a36zzUQZwNw1dqP105[] = {
/* columns rows colors chars-per-pixel */
"64 64 14 1 ",
"  c None",
". c black",
"X c #222A5C",
"o c #37446E",
"O c #D22F1E",
"+ c #800C53",
"@ c #AB1F65",
"# c #E6336A",
"$ c #FF8142",
"% c #CCAC68",
"& c #566A89",
"* c #F96B80",
"= c #FFDBA5",
"- c #CCE2E1",
/* pixels */
"                                                                ",
"                                                                ",
"                                                                ",
"                                                                ",
"                                                                ",
"                                                                ",
"                                                                ",
"                                                                ",
"                                                                ",
"                                                                ",
"                                                                ",
"                                                                ",
"                                                                ",
"                                                                ",
"                                                                ",
"                              ....                              ",
"                             .###.                              ",
"                            .###....                            ",
"                            .##**###.                           ",
"                           .###***###.                          ",
"                           .##=#**#...                          ",
"                          .@@==#####.                           ",
"                          ..@===#####.                          ",
"                           .@====##.#.                          ",
"                           .@====###..                          ",
"                           ..====###.                           ",
"                           .o&&&&&#&#. ....                     ",
"                           .&&&&&&#&&-.&&&&.                    ",
"                          .&&&&&&&&&-&&&&&&O.                   ",
"                    ...   .&&&&&&&&&-&&&..OOO.                  ",
"                    .%%.  .-&&&&&&--o...  .O==.                 ",
"                    .%%+..oo-&&&--ooo.     .==.                 ",
"                     .+++ooo.---oooo.       ...                 ",
"                      .+oooo..oooooo.                           ",
"                       ..oo. .oooooo.                           ",
"                         ..  .oooooo.                           ",
"                             .$$O++++.                          ",
"                            .$$$O++++. ...                      ",
"                           .$$$O..++++.+...                     ",
"                           .$$O.  .++++++...                    ",
"                          .$$O.    .++++++..                    ",
"                          .OOO.     .+++..                      ",
"                          .OOO.      ...                        ",
"                           .OO.                                 ",
"                           .OOO.                                ",
"                           .OOO.                                ",
"                          .XXXX.                                ",
"                          .XXXX.                                ",
"                                                                ",
"                                                                ",
"                                                                ",
"                                                                ",
"                                                                ",
"                                                                ",
"                                                                ",
"                                                                ",
"                                                                ",
"                                                                ",
"                                                                ",
"                                                                ",
"                                                                ",
"                                                                ",
"                                                                ",
"                                                                "
};
