/* XPM */
static char *e90a43bd9a0d4dfac7387b71be0d5987cPmnXGmvFxKELZx5[] = {
/* columns rows colors chars-per-pixel */
"64 64 13 1 ",
"  c None",
". c black",
"X c #171517",
"o c #340011",
"O c #332805",
"+ c #222022",
"@ c #302E30",
"# c #4B0018",
"$ c #453608",
"% c #6B0022",
"& c #5E4908",
"* c #343863",
"= c #990030",
/* pixels */
"          ..............................................        ",
"          .&&&&&&&&&&&&&&&&&&&&&&&&&&&&&&&&&&&&&&&&&&&&.        ",
"          .$$$$$$$$$$$$$$$$$$$$$$$$$$$$$$$$$$$$$$$$$$$$.        ",
"          .$$..XXXXXXXXXXXXXXXXXXXXXXXXXXXXXXXXXXXXXX$$.        ",
"          .$$X$....XXXXXXXXXXXXXXXXXXXXXXXXXXXXXXXXXX$$.        ",
"          .$$X$$$$$....XXXXXXXXXXXXXXXXXXXXXXXXXXXXXX$$.        ",
"          .$$X$$$$$$$$$....XXXXXXXXXXXXXXXXXXXXXXXXXX$&.        ",
"          .$$X$$OOOO$$$$$$$....XXXXXXXXXXXXXXXXXXXXXX$&.        ",
"          .$$X$$OOOOOOOOOO$$$$$...XXXXXXXXXXXXXXXXXXX$&.        ",
"          .$$X$$OOOOOOOOOOOOOO$$$$...XXXXXXXXXXXXXXXX$&.        ",
"          .$$X$$OOOOOOOOOOOOOOOOO$$$$.XXXXXXXXXXXXXXX$&.        ",
"          .$$.$$$OOOOOOOOOOOOOOOOOOO$$.XXXXXXXXXXXXXX$&.        ",
"          .$$..$$OOOOOOOOOOOOOOOOOOOO$.XXXXXXXXXXXXXX$&.        ",
"          .$$...$OOOOOOOOOOOOOOOOOOOO$.XXXXXXXXXXXXXX$&.        ",
"          .$$...$OOOO$$$OOOOOOOOOOOOO$.XXXXXXXXXXXXXX$&.        ",
"          .$$...$OOOO$OO$$$$$$OOOOOOO$.XXXXXXXXXXXXXX$&.        ",
"          .$$...$OOOO$OOOOOOOO$$$$OOO$.@@@@@@@@@@@@@@$&.        ",
"          .$$...$OOOO$OOOOOOOOOOO$OOO$.@@@@@@@@@@@@@@$&.        ",
"          .$$..$$OOOO$OOOOOOOOOOO$OOO$.@@@@@@@@@@@@@@$&.        ",
"          .$$.$$$OOOO$OOOOOOOOOOO$OOO$.@@@@@@@@@@@@@@$&.        ",
"          .$$.$$OOOOO$OOOOOOOOOOO$OOO$.@@@@@@@@@@@@@@$&.        ",
"          .$$.$$OOOOO$OOOOOOOOOOO$OOO$.@@@@@@@@@@@@@@$&.        ",
"          .$$.$$OOOOO$$$$$$OOOOOO$OOO$.@@@@@@@@@@@@@@$&.        ",
"          .$$.$$OOOOOOOOOOO$$$$$$$OOO$.@@@@@@@@@@@@@@$&.        ",
"          .$$.$$OOOOOOOOOOOOOOOOOOOOO$.@@@@@@@@@@@@@@$&.        ",
"          .$$.$$OOOOOOOOOOOOOOOOOOOOO$.@@@@@@@@@@@@@@$&.        ",
"          .$$.$$OOOOOOOOOOOOOOOOOOOOO$.@@@@@@@@@@@@@@$&.        ",
"          .$$.$$OOOOOOOOOOOOOOOOOOOOO$.@@@@@@@@@@@@@@$&.        ",
"          .$$.$$OOOOOOOOOOOOOOOOOOOOO$.@@@@@@@@@@@@@@$&.        ",
"          .$$.$$OOOOOOOOOOOOOOOOOOOOO$.@@@@@@@@@@@@@@$&.        ",
"          .$$.$$OOOOOOOOOOOOOOOOOOOOO$.@@@@@@@@@@@@@@$&.        ",
"          .$$.$$OOOOOOOOOOOOOOOOO..OO$.@@@@@@@@@@@@@@$&.        ",
"          .$$.$$OOOO$$$$$$$$$$$$....$$...@@@@@@@@@@@@$&.        ",
"          .$$.$$OOOOOOOOOOOOOOOOO..$O$.......@@@@@@@@$&.        ",
"          .$$.$$OOOOOOOOOOOOOOOOOOO$O$........@.....@$&.        ",
"          .$$.$$OOOOOOOOOOOOOOOOOOO$O$********......+$&.        ",
"          .$$.$$OOOOOOOOOOOOOOOOOOO$O$*****==*......+$&.        ",
"          .$$.$$OOOOOOOOOOOOOOOOOOO$O$.***===*......+$&.        ",
"          .$$.$$OOOOOOOOOOOOOOOOOOO$O$....===..++++++$&.        ",
"          .$$.$$OOOOOOOOOOOOOOOOOOO$O$....%%=.+@@@@@@$&.        ",
"          .$$.$$OOOOOOOOOOOOOOOOOOO$O$.++%%%%+@@@@@@@$&.        ",
"          .$$.$$OOOOOOOOOOOOOOOOOOO$O$.@@%%%++@@@@@@@$&.        ",
"          .$$.$$OOOOOOOOOOOOOOOOOOO$O$.o#%%%%%%%@@@@@$&.        ",
"          .$$.$$OOOOOOOOOOOOOOOOOOO$O$.o#%%%%%%%%#@@@$&.        ",
"          .$$.$$OOOOOOOOOOOOOO$$$$O$O$.@#%%%%%%@#oo@@$&.        ",
"          .$$.$$OOOOOOOO$$$$$$OOO$O$O$.###%%%%%@@@@@@$&.        ",
"          .$$.$$OOOO$$$$OOOOOOOOO$O$O$.####%%%###@@@@$&.        ",
"          .$$.$$OOOO$OOOOOOOOOOOO$O$O$.##@@#%#@oo@@@@$&.        ",
"          .$$.$$OOOO$OOOOOOOOOOOO$OOO$.oo@####@@@@@@@$&.        ",
"          .$$.$$OOOO$OOOOOOOOOOOO$OOO$.@@@####@@@@@@@$&.        ",
"          .$$.$$OOOO$OOOOOOOOOOOO$OOO$.@@@ooo@@@@@@@@$&.        ",
"          .$$.$$OOOO$OOOOOOOOOO$$$OOO$.@@@@o@@@@@@@@@$&.        ",
"          .$$..$$OOO$OOOOOO$$$$OOOOOO$.@@@@@@@@@@@@@@$&.        ",
"          .$$...$OOO$OO$$$$OOOOOOOOOO$.@@@@@@@@@@@@@@$&.        ",
"          .$$...$OOO$$$OOOOOOOOOOOO$$$.@@@@@@@@@@@@@@$&.        ",
"          .$$...$OOOOOOOOOOOOOO$$$$$..@@@@@@@@@@@@@@@$&.        ",
"          .$$...$OOOOOOOOOOO$$$$....@@@@@@@@@@@@@@@@@$&.        ",
"          .$$..$$OOOOOOO$$$$$...@@@@@@@@@@@@@@@@@@@@@$&.        ",
"          .$$.$$$OOO$$$$$....@@@@@@@@@@@@@@@@@@@@@@@@$&.        ",
"          .$$.$$$$$$$$...@@@@@@@@@@@@@@@@@@@@@@@@@@@@$&.        ",
"          .$$.$$$$$...@@@@@@@@@@@@@@@@@@@@@@@@@@@@@@@$&.        ",
"          .$$.$....@@@@@@@@@@@@@@@@@@@@@@@@@@@@@@@@@@$&.        ",
"          .$$..@@@@@@@@@@@@@@@@@@@@@@@@@@@@@@@@@@@@@@$&.        ",
"          .$$$$$$$$$$$$$$$$$$$$$$$$$$$$$$$$$$$$$$$$$@$&.        "
};
