/* XPM */
static char *_5be2d409ead45a1be5d5cf15b6e54a9g8b3954DnnmhoYZA[] = {
/* columns rows colors chars-per-pixel */
"64 79 256 2 ",
"   c None",
".  c #150B0B",
"X  c #1C1313",
"o  c #100908",
"O  c #271A18",
"+  c #350E08",
"@  c #3A2828",
"#  c #342A2D",
"$  c #221F2C",
"%  c #4F150B",
"&  c #670202",
"*  c #780303",
"=  c #721412",
"-  c #4A2616",
";  c #572A18",
":  c #5C2E1A",
">  c #622C17",
",  c #6B351C",
"<  c #673219",
"1  c #7B3C1D",
"2  c #73381B",
"3  c #7D2B1A",
"4  c #593427",
"5  c #4E3030",
"6  c #683725",
"7  c #783C23",
"8  c #6C3632",
"9  c #641C28",
"0  c #734533",
"q  c #54423F",
"w  c #081D59",
"e  c #101754",
"r  c #0D215E",
"t  c #182659",
"y  c #332D51",
"u  c #091F63",
"i  c #071E6A",
"p  c #0B1672",
"a  c #0C2164",
"s  c #0A216C",
"d  c #152765",
"f  c #0A2273",
"g  c #09227C",
"h  c #0E297B",
"j  c #142C7A",
"k  c #23336D",
"l  c #2E3770",
"z  c #52295B",
"x  c #514E50",
"c  c #73504C",
"v  c #6A6669",
"b  c #776968",
"n  c #787677",
"m  c #726E72",
"M  c #615E62",
"N  c #344170",
"B  c #880807",
"V  c #970505",
"C  c #8D1514",
"Z  c #951C19",
"A  c #891211",
"S  c #A80505",
"D  c #B80606",
"F  c #A91616",
"G  c #B51414",
"H  c #89291B",
"J  c #962423",
"K  c #883C25",
"L  c #B42B28",
"P  c #A61526",
"I  c #C90506",
"U  c #DC0B0D",
"Y  c #D70708",
"T  c #D7181C",
"R  c #CD1317",
"E  c #E40A0B",
"W  c #EC0C0C",
"Q  c #E50607",
"!  c #F90C0D",
"~  c #E70E12",
"^  c #FC0F11",
"/  c #EA1315",
"(  c #F41314",
")  c #FD1415",
"_  c #FA181A",
"`  c #D31B25",
"'  c #FB1C24",
"]  c #E81725",
"[  c #C42225",
"{  c #D43134",
"}  c #F8252B",
"|  c #FC2B38",
" . c #FA363A",
".. c #E93136",
"X. c #874526",
"o. c #854835",
"O. c #985639",
"+. c #934C2F",
"@. c #A75938",
"#. c #B55B32",
"$. c #B86238",
"%. c #C76736",
"&. c #AF2F5B",
"*. c #DC3D41",
"=. c #F63A43",
"-. c #985845",
";. c #8E584E",
":. c #A45C46",
">. c #B55548",
",. c #94624C",
"<. c #A86549",
"1. c #B9694B",
"2. c #AD6C56",
"3. c #B66B55",
"4. c #B77557",
"5. c #B4744C",
"6. c #866E6C",
"7. c #B77562",
"8. c #D34748",
"9. c #E74748",
"0. c #FB4746",
"q. c #FB5659",
"w. c #EB5558",
"e. c #C57958",
"r. c #CC6E50",
"t. c #C87A64",
"y. c #D57864",
"u. c #FD6569",
"i. c #F97779",
"p. c #EA7374",
"a. c #F2615C",
"s. c #DCB713",
"d. c #FDE813",
"f. c #EED229",
"g. c #FCDD24",
"h. c #9C8277",
"j. c #CE825A",
"k. c #CC8465",
"l. c #DA8866",
"z. c #D09375",
"x. c #E9946B",
"c. c #F7986E",
"v. c #E89577",
"b. c #F69C75",
"n. c #EC8A6B",
"m. c #FBA678",
"M. c #FAAE7A",
"N. c #D5A16B",
"B. c #DCC53A",
"V. c #0C2986",
"C. c #122E84",
"Z. c #15328A",
"A. c #113393",
"S. c #13369A",
"D. c #17379C",
"F. c #0A2796",
"G. c #24378D",
"H. c #153AA4",
"J. c #163EAC",
"K. c #183AA8",
"L. c #173EB4",
"P. c #0D2CA4",
"I. c #293CA7",
"U. c #194B9B",
"Y. c #304A93",
"T. c #1A40AE",
"R. c #1A42B4",
"E. c #1A45BD",
"W. c #1741B5",
"Q. c #1551B5",
"!. c #2647B8",
"~. c #354CA9",
"^. c #227BAA",
"/. c #4A588C",
"(. c #747588",
"). c #5266AB",
"_. c #4C4CBD",
"`. c #1A46C2",
"'. c #1C49C4",
"]. c #1D4BCB",
"[. c #1A47C9",
"{. c #1F4DD2",
"}. c #234DC9",
"|. c #214ED3",
" X c #2351D5",
".X c #2453DC",
"XX c #2955DC",
"oX c #3458D9",
"OX c #3352D0",
"+X c #2556E2",
"@X c #2A59E4",
"#X c #2A5BE9",
"$X c #2658E7",
"%X c #3A62E9",
"&X c #4E6CC9",
"*X c #4C6EEB",
"=X c #586FD1",
"-X c #4239A4",
";X c #827E84",
":X c #BD7B88",
">X c #D67F80",
",X c #6B8BF7",
"<X c #6590D2",
"1X c #548BCC",
"2X c #898888",
"3X c #979598",
"4X c #929091",
"5X c #B0988E",
"6X c #9C9CA2",
"7X c #A8A7A8",
"8X c #B7B5B8",
"9X c #B0ACB1",
"0X c #FB8789",
"qX c #F29191",
"wX c #D4AB8D",
"eX c #FCA886",
"rX c #FDB383",
"tX c #FEB88A",
"yX c #FFB994",
"uX c #F0B096",
"iX c #D0B2AF",
"pX c #F7AFAE",
"aX c #D89C9D",
"sX c #FFC38B",
"dX c #FFC798",
"fX c #FFD09B",
"gX c #FFC9A6",
"hX c #FFD5A8",
"jX c #FFDFBA",
"kX c #FFE0BB",
"lX c #B7BAC2",
"zX c #B4BCCF",
"xX c #94B1FF",
"cX c #899EE8",
"vX c #C1BFC5",
"bX c #BFC6D5",
"nX c #C7C6C8",
"mX c #CACBD5",
"MX c #D7D5D8",
"NX c #D4C9C9",
"BX c #EED3D1",
"VX c #FCEDD1",
"CX c #DADCE5",
"ZX c #D1D7E8",
"AX c #D8E3F5",
"SX c #E8E6E9",
"DX c #E6EBF8",
"FX c #F5EEF1",
"GX c #ECF3FE",
"HX c #EDF1F4",
"JX c #F3F3F6",
"KX c #F4F5FB",
"LX c #F5FAFE",
"PX c #FBFDFE",
"IX c #FAF3F5",
"UX c #F8F0E9",
/* pixels */
"                                                                        0Xq. .}  .0.                                            ",
"                                                                  pXu.| ' _ ) ) ) ) ) 0.                                        ",
"                                                              BXu. .} ' ) _ _ _ p.CXCXi.0.                                      ",
"                                                            pX0.| ' ) ^ ( _ _ qXJX=.IXNXBXq.                                    ",
"                                                          0X=.} ' _ W ( ( _ } CXFX .9.9.9.pX                                    ",
"                                                        i.=.} ] / W W / / _ _ SXiX..qX..a.BXq.                                  ",
"                                                      i. .} / / E E ~ / / _ _ MX*.9.PXaXpXy.0.                                  ",
"                                                    0X=.} ] ~ U U U ~ / / ( / iX{ qXIXIXIX*. .0X                                ",
"                                                  pX=.../ T U U U U ~ / / ( ( ` MXBXCXSXSXaX! u.                                ",
"                                                BXw...] R U I Y U U ~ ~ ~ ~ ~ E *.9.q.u.qXn.0.q.                                ",
"                                                i...` R Y I Y Y U U U U Y ~ ' | | | ' ( U R F F F L T 0.                        ",
"                                              pX0.` R R I I I Y I U I T } | | ' U G Z Z Z J J J J J J J {                       ",
"                                              a.{ R G D I I I I I I ] =.=.] D C C H H H A A C Z Z Z Z C J                       ",
"                                          0X0X{ R G D D D D D D R ..=.` B + . : O.<.<.@.@.2 + = C C C C L                       ",
"                                        u.u.*.[ G G S S S D D [ =.[ A % o o o . 4 1.1.1.5.. X & B A B C                         ",
"                                      qXw.*.[ F S V V V S S [ [ A X.O.o X 0 :.o.. 4.e.e.e.X O.& * B F                           ",
"                                      a.{ [ G Z V B V V V B A X.O.:.<.@ 5.j.j.j.j.2.rXrXM.e.l.= J 8.                            ",
"                                      8.[ G F V B B B B & % O.-.<.1.1.e.j.h.7X7Xx.tXdXsXsXNXl.                                  ",
"                                      9.L F F V B B * % + - @.<.<.e.N.sXv.Q.U.UXNXM.fXdXiX<XUXVX                                ",
"                                      0XL F F F B * + + + + -.2.n.m.rXdX&XM Y.cXUXc.gXhXz.^.HXkX                                ",
"                                        { L y.y.= + - ; % + -.k.b.m.tXyX1Xy $ U.FXv.hXhXz.M uXgXjXVX                            ",
"                                        qXyXeXeXeXc % ; : 3 K y.b.m.tXsX<Xp r U.UXv.yXgXv.eXyXdXhXhXhXVX                        ",
"                                        yXc.w.%.r.<.; ; % > 3 :.b.eXtXyX8X^.Y.<XSXv.m.7.v.eXyXhXjXkXhXhX                        ",
"                                        n.m.c.r.r.>.-.; % + % y.eXyXdXdXq (./.NXiXx.z.7.v.eXyXgXhXhXhXfXUX                      ",
"                                        c.eXb.r.>.#.<.9 > H O.eXyXyXyX7.$ @ c z.tX:.4.7.k.v.rXtXdXfXfXdXVX                      ",
"                                        n.yXb.y.r.#.>.:.- % t.yXeXyXp.;.O 5 q 5 # O o.2.4.k.m.M.rXtXtXsX                        ",
"                                        eXyXeXm.3.>.1.<.<.K qXeXeXeXt.:.X $ # 5 5 5 . ,.5.5.k.x.m.m.M.fX                        ",
"                                          n.yXgXr.3.3.2.e.v.v.qX0Xb.t.2.0 . X O # 5 X - <.4.4.j.l.x.eX                          ",
"                                          gXn.eXqX7.3.>.t.v.v.l.x.v.e.4.5.@.0 + X O # o O <.4.j.j.,.x           HXLX            ",
"                      PXPX      pX0Xq.| ' ' ^ } a.y.r.K t.y.l.y.k.l.x.x.l.c.l.<.X X O o . o . . X c         MXmXCXJXPXPX        ",
"                    AXAXGXLXIX' ) ^ ^ ^ ^ ^ ^ ^ ! ! ( #.7.t.r.e.4.e.l.x.x.c.M.0 5.5.5.4 X X - O <.    NXFXFX8XvXmXnXDXJXPX      ",
"              PXPXPXPXPXmXZXKXPX) ) ) ) ) _ _ ) ^ ^ ^ ! ! B -.r.r.4.j.l.l.x.c.m.x.j.e.j.5.j.1.rXhX  5X7XMXIXCX9X9XvXCXPXPXPX    ",
"          PXLXPXPXPXPXPXPXJXmXKXIX_ ) ) ) ) ) ) _ _ ) ) ) ^ * +.1.1.5.e.j.k.l.b.c.x.m.M.m.M.rXsX    6.6.vXSXPX3X8X8XnXmXCXIX    ",
"      LXPXHXPXPXPXPXPXPXPXPXKXmXIXqX) ) ) ) W ! ) ) ) _ ) ) ^ * 5 1.3.4.4.4.j.l.m.M.m.x.M.M.sX      m v n iXSX2X9X7X3XmXKXPXPX  ",
"    PXPXPXLXLXHXLXLXPXLXPXPXPXFXSXJX! ! W Q Y Q W W W ) ) ) ) ^ * e 5 ;.2.2.j.4.k.x.M.M.M.tX        6.v M n v M n 3XlXmXSXJXPX  ",
"  LXLXLXLXLXGXKXLXGXJXPXPXPXPXPXmXSX*.Q Q Y D I Y Y Q W W ) ) ) ) z L.e 0 ,.2.2.4.j.l.x.rX        MXb v m 3XM y x 3X7X9XlXnXSXPX",
"DXGXGXGXGXGXGXGXGXKXKXLXPXPXPXPXSXZXaXD S V B V D D I Y Q W ! ) ) ~ `.$XZ.& & o.;.>.eX            ;Xv v ;X8X4Xx x m 2X2XMXKXPXPX",
"CXAXAXAXAXDXDXDXGXGXKXPXPXLXPXIXUXiX7.&.  8.J * B V S I Y Q W ( _ ^ z $X+XN * 3 e * W ' >.  w.F C 6.M v ;X9X(.v x x 4X8XvXSXHXJX",
"ZXZX9XbXZXAXAXDXDXHXKXKXJXIXHXHXSX8X          9 B * B V D I Q ( ( ) G +X#X$X~ A + P ) ^ ! & * & & m 8X6X;X6X(.m v x b 3X3X6X8XSX",
"SXzX(.zXzXmXZXCXDXDXGXGXHXHXUXSXJX            9 B * & B S I E W ( _ ( [.#X$X&.! T I.E W ^ B & & * 9 3XmX;X;X7X9Xm M v b m 2XlX  ",
"  mXn lX3X7XzXZXCXHXSXHXSXSXVXSXKX            z I I E Q Q U W W ^ ) _ L.#X#X@X! ! f I E Q Q S D V & M 9XCXm 2Xn (.m n ;X7X      ",
"  HXn lX2Xn 2XlXmXMXCXMXMXnXMXMXLX            !.Z Y Y Q W Q W W ( _ ) G.#X#X#X] ! 9 P Y Q Q S D V & & n 9X8Xv m n n 4XnX        ",
"    ;XlXn n (.6X8XMXnXnX8X8XnXMXPX          xX!.K.z I Q Q E W W ( ^ &.K.^.g.d.%XOXOX(.S D I S V * & & & n 9Xn n nX              ",
"    NXnXn v (.4X7XnXnXh.x n 8XMX            ,X!.J.K.L./.P Q U E ` _.XXK.B.g.d.B.$XXX~.s.V S V * * & A K   7X7XMX                ",
"        n v n 2X7X8XnXMXv 6XvXSX            ,XR.T.W.T.W.].].|. X.X.XXXK.s.f.g.d.+XXXK.d.= B A J >.                              ",
"        8Xn 2Xn 6X9XMXMX7X9XnX            xX*XR.W.H.H.T.E.'.].].|.|..XH.x s.f.N.+XXX!.f.                                        ",
"              h.3X7X6Xh.6X9X              ,XOXR.T.W.T.H.E.E.'.].|.|.|.f L.x M {. XXXOX5X                                        ",
"                  ,.b b v 0               *X}.T.J.T.T.J.E.Q.E.].}.|.|.|.P.A.E.{.|.XX=X                                          ",
"                h.6.c 5 - 9 ~.=X        xX%X!.J.K.J.J.W.H.E.`.].Q.].{.{.{.{.].{.}. X*X                                          ",
"              5X;.c 9 5 @ P.V.~.        *XXXL.H.K.J.H.W.W.W.T.W.}.].].'.[.{.].].}.OX,X                                          ",
"              0 c 4 ; - D.p V.V.I.      *XOXP.A.S.H.H.J.W.W.W.`.'.'.E.].].{.[.E.!.}.,X                                          ",
"            ,.6.6 < 4 G.g p V.F.P.L.OX*X*X}.D.A.A.H.H.J.J.T.W.W.E.`.`.[.].E.`.[.}.}.xX                                          ",
"            5XX.1 K z V.p g V.F.F.P.P.[.oXR.A.A.A.H.H.H.H.J.J.L.W.E.E.`.[.[.[.`.!.!.                                            ",
"          N.X.1 1 0 E.i f V.V.V.F.F.F.L.&XK.Z.V.A.H.T.J.W.W.Q.E.]. X.X.X.X+X+X+X*X=X                                            ",
"        k.O.0 1 1 Y.H.f p V.V.V.V.F.F.K.&XD.C.j A.H.S.T.W.`.].{.{. X.X.X+X+X$X$X$X$X,X                                          ",
"      N.,.0 1 1 , J.V.f f p p V.V.V.g F.I.D.C.h h A.T.E.W.E.`.'.].{.{. X.X+X$X$X$X$X$X,X                                        ",
"    N.;.X.1 1 1 y H.f s f f f g g g g F.g Y.j h h C.A.T.W.H.W.E.[.'.].{.|..X.X+X$X#X#X#X,X                                      ",
"  N.,.1 2 1 1 1 t S.i s s s f f f f f g i i Y.h s f C.A.T.A.E.U.E.E.`.[.].|. X.X@X@X#X#X#X                                      ",
"  -.2 2 2 1 1 1 y V.u u s s i s s s s i i u w k j a f j C.A.T.A.E.D.E.E.[.].{. XXX@X@X@X#X,X                                    ",
"h.c < 2 2 2 1 1 # u a u u i u i i s s i i w w w k d a a f h C.A.T.Z.W.T.E.`.].{.XXXX@X@X#X%X          uXuXuXBX                  ",
"  0 6 , 2 2 2 1 - a r r w w u u a a a u w w w w w N t d a a s j h A.D.A.R.T.E.].|..X@X@X$X$XcX      -.@.#.%.%.j.BX              ",
"  0 ; : < , 2 < - y k /./.k a w r r r w r w w r r w d M k d a a a s h Z.D.S.T.`.}. XXX@X+X+X.X$X).0 o.@.@.#.#.%.e.VX            ",
"  5X4 - ; : , : 4             /.k d r a r r d d k /.      /.l t a a a s V.T.W.E.[.|..X+X@X.X.X|.z c ;.:.:.1.r.$.#.t.            ",
"      0 : : , c                     )./././.                    Y.d r j V.S.A.W.`.}.|.XX@X{..XG.9 o.;.;.:.2.k.4.@.@.BX          ",
"                                                                    /.j j A.J.L.E.[.|.XXXX[..X5 0 c o.+.+.2.5Xe.#.+.gX          ",
"                                                                      G.C.A.H.J.R.'.}.|.|.[. X8 8 8 0 X.+.:.2.>.+.X.uX          ",
"                                                                      ~.C.C.A.D.K.E.[.].].[.!.0 7 7 7 K X.+.O.O.X.+.sX          ",
"                                                                      <XG.h A.H.J.L.`.'.`.].y 6 7 7 1 1 K K X.K 1 M.            ",
"                                                                        Y.C.h A.D.K.W.`.E.`.6 6 2 2 2 2 1 1 2 2 M.              ",
"                                                                        =XZ.j h S.A.H.T.W.J., , , < 2 2 2 < < x.sX              ",
"                                                                          /.j j V.H.T.J.L.5 6 , < < < < > , j.c.                ",
"                                                                            G.j h A.S.T.G.< , < < < < : 1 j.                    ",
"                                                                            ).Z.h A.U.d : < < < < < : X.j.                      ",
"                                                                              Y.U.h h : : < < < : : X.j.                        ",
"                                                                              &Xf t - ; : < : : 6 ,.                            ",
"                                                                                c - - - - ; : 7 5.                              ",
"                                                                                  4 - - - ; 0 5.                                ",
"                                                                                    4 4 : 0 O.                                  ",
"                                                                                        ,.                                      "
};
