/* XPM */
static char *_2c206746e254359f7682d69a36c4539pc25f2dUAT0K4rrU[] = {
/* columns rows colors chars-per-pixel */
"64 64 66 1 ",
"  c #2F2521",
". c #312521",
"X c #372923",
"o c #3A2D25",
"O c #3B2E28",
"+ c #3E3027",
"@ c #3F3028",
"# c #443326",
"$ c #4B3726",
"% c #413128",
"& c #443428",
"* c #44342A",
"= c #483628",
"- c #4E3828",
"; c #4E3928",
": c #4F3928",
"> c #4F3B28",
", c #503B25",
"< c #533B26",
"1 c #533B27",
"2 c #523C26",
"3 c #523C27",
"4 c #533D27",
"5 c #543E27",
"6 c #503B28",
"7 c #533B28",
"8 c #543E28",
"9 c #543F28",
"0 c #583F28",
"q c #583F29",
"w c #534027",
"e c #544028",
"r c #554328",
"t c #564228",
"y c #55422A",
"u c #584028",
"i c #58402A",
"p c #5A4529",
"a c #58442B",
"s c #5B472A",
"d c #5C4629",
"f c #5D442A",
"g c #5F452B",
"h c #5C472A",
"j c #5E4929",
"k c #5F4929",
"l c #5E4A2A",
"z c #5E492C",
"x c #61472A",
"c c #62462B",
"v c #604A2B",
"b c #614B2B",
"n c #654A2B",
"m c #63482C",
"M c #64482C",
"N c #64482D",
"B c #684B2C",
"V c #694B2C",
"C c #684D2C",
"Z c #6B4D2C",
"A c #6A4E2C",
"S c #6D4F2C",
"D c #6D4E2D",
"F c #6D4F2D",
"G c #6E4E2D",
"H c #6E4E2E",
/* pixels */
".xB3339kZFDDF3<9DmbFFvnD333333<kDDZ93hkk333333:o33333333OO@3O...",
".xZh3333it0iidd3093ii339%%%O%$3wii<33393%:33+:3:3#%33%#3:%O+o...",
".hZv333391333dd33333<3$6%%%OO333333$3333+:33@:333&%33&%33%%#@...",
".tvD3333663333333333t%@313133333333o33333333333333333333333k+. .",
".o&Dvkkk333333339936333311333333333333333333333933333333zetkoOO ",
" oO&%oo%%++%XXXO%O%OO%OXXO+XXXXXXXXX%%#O+oXX%XXX@@%O@%@+@@@%+OOO",
"oO%%O..o#+%%ooo%%ooo#%O..+O.XooXXXoX&%%%%. ooX..oOO%OO#&%@%%+*++",
"h33<OX..kw3kv<<vkX .11:oo6:o3hvk33ekk33k1O&kOOo .o@3O:3z33tkzkd:",
"313313= ke331dkzh33O.o%3333333:Ok333>#oO3%%kkks9o:3333:933333313",
"3%&31&Oo9%%%399t961$.#613333333:3339do  3ook399O:333339dh3333&%3",
"3##3:Ooo3%OO33:3e999X;39333333333333d#oo3Xod33:#933333tkh3333&%6",
"3331O...v%OO3333:dkk6<wvh93333333333>dkskoX39sksk3333hkk333333:o",
"3333 $$Ok99:6kd9>339k9693333333333333+oO3++333:9kkd99;3333693333",
"3333$3-O9*O%1<tdssd:939<333h333333333>;;;##jkdd99969>933ddd63di3",
":-:$$$#o$%OO--3tdt3$$$$;::3d::--:::::::;;++wrrt:::::::::ttt::tw6",
"OOo.... .oOOOOOOO..  OOoO. OOOOoOOOOOOOoo...OOOOOOOOOOOOO..OOOOO",
"33333333.oOO333333-O..oDDDZkke33k3333333333333333dsk339kO.XO6gs9",
"3331%OOX.o%-133333-Oh36xi0t3t>3333333333333333333399339kX0ccBq96",
"3333O%%XXO%3333333-ox00v:$$:$333:3363333333333333393333h.gnBB933",
"333313333333333333-O.MDDO....$33o::o33333333:93333333336O:691333",
"kt9DDCkk33333333333O.9h367iD3333k93333333DZkFtek3nZk3hk9O:99kkh3",
"9<3t<<et3333333333$..6339cnv33339333333333t3w339399933<3OdzdZvh3",
":333339:33333333336.O6<99xmk3363333333333333333333333333OcBkDhd9",
"333333333333336933:oDkk3k9tk33:9333333333363333333333333OmZkk733",
"OoOOOOOOOOOOOOOOOOOOOOOO....OOOOOOOOO oO.....oo+OOOoOOOOOX  oOOO",
"d:9mx96c096MM9$--$$-$6$$$$$3::$:::-$$$$$t3w:$:3errt;:::dOoo.OO%n",
"h99BB9<Dg99BZ9339w9933333333t9<33933:39:ddd3333dkdd39:3i%@O.OO&c",
"336933thm969k933kki333333333Fmk3k93339:93333333399333;33z9$.OO@9",
"O-:OO:139633331199133333333333339<333333O:313333:XX93dd39dd9O.oO",
"M#%O666O%--#O%&33631%-333cMh133339d3Oid<XO#1+oo3O$:;3993dkiOO..O",
"D$%&999&%::O#O#39967%$133vnh33333dd:@td9Xo#3+Xo3+:33<969sdtOoXo#",
"D09DDvvD33633313D03333133333333333333:33333333333333769zke$. $tD",
"k9<<33333ZZk39:93333333<3<3633:933331133333333>333331dkk3OO  o%k",
"%%%O%O%O@&&%@@@@%O@@%O%%%O%%@@+@XOOXXXX%XXXXX+%O#oO%%ooo#oOo oO%",
"%O%%%O%%@%%%%%@*%%%oooO#&&%%OooO.ooXooO#oXXXX@%%#O%oO...#OO#Xoo%",
"3333333>3dsk9dkkzkw ..oDDDn9O..O..X3hDDDb333l93333;....O331<3179",
"333333ek3dd933wkkkt  .oDDt9k3333333<1hvx3skkk33>k3$..oO13316Dmk9",
"339kBBZZ393:3339tkt ..X9&::o@%&333333<ww3#*wwoo@%%O. o%3O639tnc3",
"3$:dBBBB33333333999   X$o:$ O&&33<ww33333##33ooOoOO. oo:O66$:gk:",
"3%%933333333333969$      $$ 3dd39kjj333v333333$+OOOO ..oo6:O3@OO",
"333333333333333kk9$  o@93336133363333333333333333#X...X391333333",
"333333331633333393$..#9Z9mnBB9:9333333333333:9333$$..#$311163333",
"::::::::::::6:::::#..#:m:smmn66-::6:$$::$$::$:::;$#..#$:$$$6$:6:",
"OOoOOoOoOOOOOOoOOoo .oOOOOOOOOo%oOOo   o++o+O+oOO ....Xo.oOOOOOo",
"3kd36dk3oo&DD0tDk3:OO ..OX Okdd3z3<ktdd9:9:333;3kw3oDoX3DGZh3333",
"3333@oo3oXo9#oot9#%::dg$tte:9993kki399339>9d9d9Xo$:OiXXXi9w93333",
"$336%Xo<oXXi%o@90&&31nc6dsd3:$:3kdd3:::3339d3d9 .::o0oXX<<33333-",
".$:o3333.O#D3DZkFmd3136933333XX99:933@@3333333$ o::oDi33393333:O",
"33333deO  X3333333:O99696611::9>33993333333333$.O::oD&O .$999761",
"3dd3dt3o .oZdvnBd9>r:xBBBxd39dddd39h333:3333333$:3:ODnn-$xMf-69<",
"-t9$r3#o..omsccnd::t$hnxc0t-:tatt-:t$:::::-:$::$$$#occd:-gMt$$$$",
"o.. .....oOOOOOOOOo..oOOOOOOOOOO  .O oOOOOOo.oo ....OOOOOOoO... ",
"D9133BZkD933kgs93333  X3O:=.vDZkDDB6Z99kZ90DDDZk:3333%OOD09D3hvD",
"990Bh0i<v93399963333$$$3O@O.Zi9@tt<3t969t63iette3333<Oo.mt<t33t<",
"339Bh133h13333693333:$:3OOO nt:O3-93t9333933333333339Oo t91$$$:3",
"331633339<3331363333O X3OOo o::o3&O3kkk33dk3333333333X..O:3O..X3",
".$31O:3333$.3%O133333333OOo  oOOOO@93::Oo:33333333333X.OD96699$O",
"$136$336333$3Xo<33333333OOo .OOO6-9Zcki::%&:333333333Oo.HZc966$X",
"333393=93333<oo333333333OOO .OO*3<inmdt::+O::33333333#O.nHZ9w3;X",
"333333993333333333333333>%o OO*Z6iho+O@oOOOOo:3333333Oo.onZsFvd3",
". .OOOOOOOOOOooOOOOOOOOOOOOOOOOOOOOOO@OOOOOOoOOOOOOOOOOOOOOOOOOO",
".o%ctdadatrd<;::::::::9wvMM6:dmt;;;detyy::$:r:::::::tit:$tt=OOoX",
" @-Bddddkadd339333339:3kDMM7eZZk:39dsszs3333ke333333hhd69hd9%Oo.",
".mZm66969933333333333333h917kZm333339:993339:93333333361119k9Oo "
};
