/* XPM */
static char *_be222c6ac21454cf17ffdb6353150d8xyDlOwMTgnfnauLr[] = {
/* columns rows colors chars-per-pixel */
"64 64 121 2 ",
"   c #030202",
".  c #090705",
"X  c #0C0906",
"o  c #0D0A09",
"O  c #110C07",
"+  c #130E0A",
"@  c #16100C",
"#  c #1A130D",
"$  c #171210",
"%  c #1D1612",
"&  c #1F1913",
"*  c #20170F",
"=  c #231A0F",
"-  c #231B14",
";  c #291E15",
":  c #261D1A",
">  c #281F1B",
",  c #2D2116",
"<  c #2C221D",
"1  c #342616",
"2  c #32251C",
"3  c #36281E",
"4  c #3B2B1C",
"5  c #3C301E",
"6  c #2F2420",
"7  c #312621",
"8  c #352922",
"9  c #3B2C23",
"0  c #3A2E29",
"q  c #3F3026",
"w  c #3E312B",
"e  c #3E3531",
"r  c #412F1E",
"t  c #42301F",
"y  c #4B371F",
"u  c #412F23",
"i  c #443223",
"p  c #4A3625",
"a  c #4E3926",
"s  c #43342B",
"d  c #4A3728",
"f  c #4F3B28",
"g  c #533C27",
"h  c #583F28",
"j  c #413631",
"k  c #463A34",
"l  c #4A3C35",
"z  c #463C38",
"x  c #574027",
"c  c #5B4326",
"v  c #54412A",
"b  c #5B4229",
"n  c #5E452D",
"m  c #5C452E",
"M  c #4F423A",
"N  c #4D413C",
"B  c #5F4B30",
"V  c #51453E",
"C  c #51453F",
"Z  c #614729",
"A  c #634829",
"S  c #64492B",
"D  c #664A2B",
"F  c #674B2B",
"G  c #63492C",
"H  c #64492C",
"J  c #674B2C",
"K  c #694C2C",
"L  c #6B4E2D",
"P  c #694D2E",
"I  c #644B32",
"U  c #674F35",
"Y  c #694F32",
"T  c #655133",
"R  c #6C5234",
"E  c #6A5238",
"W  c #6B5339",
"Q  c #705536",
"!  c #765934",
"~  c #795B36",
"^  c #70573D",
"/  c #745939",
"(  c #745B3D",
")  c #7D5F38",
"_  c #7F603A",
"`  c #524640",
"'  c #564840",
"]  c #5B4D43",
"[  c #584C48",
"{  c #66564C",
"}  c #6D5B4E",
"|  c #755F48",
" . c #625651",
".. c #645752",
"X. c #635954",
"o. c #6B5C52",
"O. c #6A5F58",
"+. c #77614A",
"@. c #7A6757",
"#. c #7A695A",
"$. c #716966",
"%. c #786D66",
"&. c #786E6A",
"*. c #846841",
"=. c #98794B",
"-. c #806E5D",
";. c #81746B",
":. c #887B6F",
">. c #8A7D72",
",. c #877D79",
"<. c #A48252",
"1. c #A88451",
"2. c #AC8A57",
"3. c #B5925B",
"4. c #B6915C",
"5. c #B8945C",
"6. c #BC965E",
"7. c #8A827F",
"8. c #C39F6B",
"9. c #978C82",
"0. c #9A8E84",
/* pixels */
". < 9 g g g p g p ; 2 g g 7 Z  .b g a M g . % 6 g g g g 8 g 8 ; i g p Z i I g g s m 8 b g g g g g 8 K g g g g g 8 p X.v g p N 9 ",
"  < 9 g g g p p   < o 7 g . g S a g g F 4   . 6 g g g g 8 o o . 7 p i t f g g g g g X b g g g g g 8 F g g g g g   g F g g g L # ",
"    6 f g g p   - 6 2 g g . m 1 4 a a a -     < 8 g g g : $ 7 ; g g i v p 1 f d p 1 o g g g g g g 9 L g g g i g . v 1 i d f d o ",
"    9 g g g 4   o 7 9 g g 7 Y 9 g g g g p .   : g g g g     6 6 g g g H a a g g g g 9 h g g g p g # g g g g g g 3 b 9 g g g f 4 ",
"o < g g g g u   o % 6 f g 8 p #.c g d m a $ X 9 P g g g $   < 7 8 g a p w U g p V g 9 h g g g d g 9 L g g g Z g 8 g -.g g l Z 9 ",
"- p L g 9 g 4   9 7 @ 7 9 X 9 g g g v h p 2 + F G 8 g g   : p . p 7 i : g g g a S g 2 g g g a p g # g g g g g g o c g g g H f 9 ",
"H g b g g g 4 + 9 7 o i 9   8 g g g g g i c g A g g g g   < p . 8 i < : g g g g g g + h g g g g g 8 K g g g g g . c g g g g g # ",
"g g g g g g 4 A g g g 8 g . 9 g g g g g r p g g g g g g + g g g f p i : g g g g g g . g g g g g g + F g g g g g 7 b g g g p g # ",
"g g g g h g 4 Z a e b s l . 9 g g g g g p p g g g g b g + b i b f l a : g g g g g g % g g g g p g # K p k g s m 8 b g g g g g ; ",
"g g b g b g 4 Z g L g g g > 2 a g g F g p g g g K g S g + g v v g H o 7 7 g g K g g 7 g g g g g g + H g L g g b 8 b g g g g g 9 ",
"S g b h h L 4 1 2 1 1 + o   <   p F g g i S g g S g S b X 1 1 2 , +   : # 4 h h g g > b g g g g g + 1 1 i u p 1 . b g g g c g < ",
"S g L g g F 4 4.G S o . 7 . g a g g g g p S g S L g v g ; ! A + : : : u g g g g g g 8 h g g g g g + 6.S K H L v   f g g g g g 9 ",
"S p g g p g p F s b 6 $ o 7 H g g g g g p A g g g p g g 9 a l 8 <   7 A g g g g g g 9 c p g g g g 9 H k b ` b g 8 h g g g p g 9 ",
"b 7.<.8 } g 4 Z / m p 7 < . g g g g S g t m z 8.a  .S g # g 4.g 7 6 > i g g g H g g O 9 0.R 0 E g # F 2.g H g g . g g g g g g # ",
"S Z g g b g p m g p g g 7 + g g b g S g r c g g g Z g g 9 g g g g 9 > i g b g L b g o c Z g g h g 9 S g g g g g . g g g g g g # ",
"g g g g g g 4 p g g g 7 d 7 g g K g c g t p g g g g g g + g g g p d 7 d g H g g S g X g g g g g g # g g g g g g 6 g g g g p g # ",
"p i , ; ; -   p g g 1 b g : Z g Z g g g u 4 p ; 4 - <   O g g 4 4 g p h g H g g g g . i 9 4 = 9 9   g g g g b g > c g g g i g # ",
"Y g g g g .   A g g o 8 g 7 S g b L g g p L g g g g r   + h g o 6 a a Z g f L g g g 7 b g g g g g 9 F g g g g g 7 b g g a p g 9 ",
"A k g g g +   A g 7 7 7 g : S g g g i g a G p v g g 9   - h a < 9 a p c g g H i g g 9 f k h g p 0 9 L g g i g g > b g g g p g 9 ",
"g Y g g g 8 < S g g g f g . H g g g g g i p g b g g p 6 9 g g g g g i c g g g g g g O g L g g g Y 9 F g g g g g . c g g g g g # ",
"Z g g g g g i S g g g g g 8 S g g g g g p S g g g g g g 2 g g g g g a H g g g g g g 9 h g g g g g 2 F g g g g g 8 b g g g g g 9 ",
"S g g g g g p S g g g g g 8 H 9 g g g 8 p S g g g g g g 9 h g g g g p Z a a g g a a 8 b g g g g g 2 L g g g g g 8 b 8 g g g 8 9 ",
"G g p 7 g g p S g g g g g < g ;.A g a { g S g g g g g g 9 v g g g g p b 9 W g g w Y < h g 8 7 g g 9 L g g g g g > 4 :.h g u o.4 ",
"g g p 7 g g p S g g g g g . + + + 8 8 8 X p g g g g g g 9 h g g g g i . < . 8 8 7 + o g g 9 8 g g 9 S g g g g g   > o > 8 8 7   ",
"S g - 6 p g i S g g g 9 i + <.I H F F H i c g g g a g g 2 g g g g a p =.S H H L S g # g g o 7 f g < H g g g 9 8 # _ m S K L H - ",
"S g & . 9 g i S g g g 9 7 < m &.S g a a p A g g g 8 g g 4 v g g h g a Z s ^ g g 9 g 9 b p o o p g 8 K g g g 8 7 8 i ,.b g 8 g 9 ",
"g g > 6 9 g i Z g g p g p > 7 S g g k K p g g g g 7 g g 2 h g g g g a c g b g 8 } b 7 g g @ 7 p g 2 H g g 9 g 8 : 7 H g g ] S 9 ",
"G g 7 6 g g p S g g g g 7 . 9 g g g g g i c g g g g g g 3 g g g g g i c g g g g g g + c a 7 7 g g 3 L g g g g 7 . p g g g g g * ",
"G g 9 8 a g i S g g g g 7 . 8 g g g g g t c g g g g g g 3 h g g g g i c g g g g g g o h a 9 9 g g 2 K f g g g 7   p g g g g g # ",
"g g g g 9 g 4 Z g > p 7 :   8 g g g g g t p g g g 9 g g @ g p p g 9 a Z g g g g g g o g g g a p g + L g > 8 8 +   p g g g g g # ",
"g g g g g g 4 Z p o.h 7   . 7 g g L g g p a g g g g g g @ h s Y a { m Z g g g g g g 7 g g g g g g # K 9 o.i <   o i g g L g g 9 ",
"m g g g Z g 4 g p 9 2 o   . 7 8 g L g g p A g g g H g g O g g g g g i c g g g A g g 8 c g g g v g + c 9 8 7 .   o 7 9 g L g g 9 ",
"H g g g g g 4 * O O + 2 <   9 g 9 F g g t m g g g g g g   + # # 9 9 o t g g g g g g @ c g g g g g + - O + + 8 #   p g p S g g * ",
"S g g g g g i ~ g g g g c < S g g g g g d G g g g g g g 9 m 9 b i b p c g g g 9 g g 8 b g g g g g 7 ~ i g i v g < b g g g g g 9 ",
"S j m a i g p F k L V R g < S g c b g g p S d I g w g g 3 9 @.9 >.g a m g g g g g g 2 g j g d f g 2 H o.G %.H g < b g S g g g 4 ",
"Z | Y d U g i S b v g g g . g S S g g g t c g R g U b g 2 b Y g g g p t g g g g g g o g ( b g m g 2 F Y g b g g . g F m g g g # ",
"Z g g g g g p g g 8 a a g X g S S g g g r c g g g g g g 2 g g g g g i i g g g 9 g g o c g g g g g 8 g g 9 a a g O g F b g g g # ",
"# 9 % + # 9 o p g g 7 p g 8 S g F g g g r + 8 # 2 O 8 # O g g g g g p c g g g 8 g g   < 2 < + < 3   g g g 7 a g 7 c g b g g g # ",
"1.L Z F b     p g 7   b g O g g g g # g t 2.L S h L L g # g g g h h i y g g g 9 g g * ) L b L i     g g <   H g X g g g p 4 g % ",
"S 9 g g g     Z g 7 < 7 g 8 F g g g 9 g a S p g g g p p 9 g g g 8 g a S g g g 8 g g 9 b 9 f g g     F g < < 7 g 9 b g g g p g 9 ",
"b o.S g p < + K g 9 9 9 g X S g g g g g p Z s Y g g w R 9 b g g g g y b g g g g g g 2 i o.g g 9 < > Y g 8 p 8 g . b g g g g g 9 ",
"m b g g g p i H g g g g g > S g g g g g i m g g g g g g 9 g g g g g p c g g g g g g < g b g g g p 8 F g g g g g > b g g g g g 2 ",
"S g g g g g 4 S g g g g g 8 S g g g g g g S g g g g g g # b g g g g g Z g g g g g g 8 g g g g g g # H g g g g g 8 m g g g g g 9 ",
"S g g g g g p S g g g g g 7 m $.Z g a [ b S g g 9 a g g 9 v g g g g p Z 0 E g g w I < o 7 p g g g 8 f i + 2 g g 8 4 &.g g i [ i ",
"H g g g g g p S g g g g g . p S d f g H 4 c g g 6 a g g 9 g g g g g i 4 g g f a g g     < i g g g 9 t   < : 8 g . g Z g g a H # ",
"Z g g g g g p L g g g 8 g X *.p p b b b ; c g 8 $ a g g 9 b g g p g 3 ( c y b b b 4     . 6 g g g 9   > 7 p g g X R y g b b v + ",
"H g g g 9 g 4 p g g g g g 3 H 0 c g g g a K g 8 . 6 g g @ g g g g 9 7 Z d f g g g g <   . p g g g #   - 7 p g g 8 b 0 g g g g 8 ",
"h g g g 9 g p H g g g c g 8 Z | c g s H d g g 8 . 6 g g 9 b g g 9 p 7 u 9 I g u [ b < . 7 G g g g %   - + 7 i g 7 8 +.g g V S 9 ",
"g g g g 9 g 4 p g g g g g . H g g g v g a g g g 7 7 g g + g g g g g > > g g g g K g 7 O g L g d g + . p > 4 7 d   d g g g H g 9 ",
"H g g g g g p F g g g g g . H g g g g g i c g 2 7 a g g 9 g g g g 8 > : g g g g g g o c g g g g g + - d 6 - 8 8   p g g g g g # ",
"g g g g g g 4 S g g g g g 7 K g g g 9 g r p g g g 8 g g + c g g g 8 : : g g g g g g . g g g g g g + H g g g 7 g   p g g g g g # ",
"g g g g p g 4 S g V b u ] 7 H g g g g g p p g g g p g g + g w U 7 $   > g g h g g g > g g g g Z g + Y i ` h 0 I   d g g g g g < ",
"g g g g g g 4 Z g L g g K 7 K g g g g g p a g g g g g g + g g v 6 . . 6 8 g h L g g 7 g g K f H g + S g L g f % 7 7 g g g b g 9 ",
"S g g g b g 4 # * 9 ; 9 3   b g g g b g i A g g g b g g   = + + $ %   : i u h h g g - h g H g b L + * * * * % .   1   p L g g ; ",
"S g g g g g 4 5.S L L L S o g g g g g g p A g g g g g g , ! S L K L i i g g g g g g 7 h g L g g H # 6.F Z - . 7 . g g g g g g 9 ",
"S i g g p g p H s A l H g 7 H g g g p g a A a g g i g g 9 p ' i O.g d n g g Z g g g 9 h u g g g g 9 F V b 7 % - 7 b g g g g g 9 ",
"b 7.<.2 } g 4 H / H h g g . g g g g g g i c l 8.p ..H g # h 4.g L f i r g S L g g g + 9 0.Q 0 W g + K 2.g 9 7 7 . g g g g b g # ",
"S m g g c g p b g g g g g . g g g g i g r c g g g b g g 9 g p g g g i y g L g g g g o c b g g g g 9 b g u g g 7 - g g h h H g # ",
"g g g g g g 4 p g g g g g 7 h g g g 8 g i y g g g g g g O g g 7 7 p g p g H g g g g . g g g g g g + g g g g 7 9 7 g g b g S g # ",
"T g r 1 r g * p g g g H g % b g g g 8 g r U a 4 u 4 >   O g g - - g p g g b g 1 g g o b g u 1 2 +   g g g - Z g % g g b g g g # ",
"K g g g g g a H g g g g g 7 A g g g 9 g p L g g g g r   + h p . 7 p p Z g g g 9 g g 7 b g g g g     K g p - 7 h 7 b g S L g g 9 ",
"m V m g p k g H g g g g g - H g g g p g p H s H g g 4   > h p 7 u g p c g g g i g g 9 p ` g g i + + L g 7 9 7 g - b g b g p g 9 ",
"c F g g g L p H g g g g g . H g g g g g i p g h g g p 7 9 h g g g g i c g g g g g g o g L g g g 7 7 Y g g g g g . b g g g g g # ",
"Z g g g g g i H g g g g g 7 L g g g g g p Z g g g g g g ; g g g g g p Z g g g g g g 9 h g g g g f ; K g g g g g 8 b g g g g g 9 "
};
