/* XPM */
static char *_e1d260b28494f08f65fb2fad27290f5CoCRp8cWygMfw3Fy[] = {
/* columns rows colors chars-per-pixel */
"64 64 134 2 ",
"   c #060100",
".  c #0C0400",
"X  c #0E0903",
"o  c #100700",
"O  c #140C04",
"+  c #180F06",
"@  c #140E09",
"#  c #180F08",
"$  c #171006",
"%  c #191007",
"&  c #16110A",
"*  c #1F150B",
"=  c #1E140B",
"-  c #1E160B",
";  c #1D140A",
":  c #19120C",
">  c #18130D",
",  c #1A130D",
"<  c #18130F",
"1  c #1C130C",
"2  c #1C130E",
"3  c #1B140C",
"4  c #19140E",
"5  c #1B140E",
"6  c #1A150F",
"7  c #1D140D",
"8  c #1C150D",
"9  c #1E150C",
"0  c #1F150C",
"q  c #1D160C",
"w  c #1F160D",
"e  c #1E170D",
"r  c #1C150F",
"t  c #1E150E",
"y  c #1D160E",
"u  c #1F160F",
"i  c #1E170F",
"p  c #1C130B",
"a  c #1D180E",
"s  c #191410",
"d  c #1A1511",
"f  c #191611",
"g  c #1B1610",
"h  c #1B1612",
"j  c #1A1712",
"k  c #1E1510",
"l  c #1D1610",
"z  c #1C1711",
"x  c #1F1611",
"c  c #1E1711",
"v  c #1C1713",
"b  c #1E1511",
"n  c #1F1810",
"m  c #1F1812",
"M  c #1E1913",
"N  c #1D1814",
"B  c #1F1A14",
"V  c #1F1911",
"C  c #201207",
"Z  c #20130A",
"A  c #21140B",
"S  c #23150A",
"D  c #23170B",
"F  c #261609",
"G  c #24160B",
"H  c #21140C",
"J  c #22150C",
"K  c #20160C",
"L  c #20160D",
"P  c #23160D",
"I  c #20170E",
"U  c #21170E",
"Y  c #25170C",
"T  c #24170E",
"R  c #20170E",
"E  c #20180B",
"W  c #21190C",
"Q  c #221A0D",
"!  c #21180F",
"~  c #20190F",
"^  c #22180E",
"/  c #22180F",
"(  c #25180F",
")  c #21190F",
"_  c #28180B",
"`  c #281A0F",
"'  c #201710",
"]  c #201712",
"[  c #201710",
"{  c #211811",
"}  c #201911",
"|  c #221910",
" . c #231910",
".. c #231A11",
"X. c #211813",
"o. c #201913",
"O. c #221912",
"+. c #211A12",
"@. c #231A13",
"#. c #221B13",
"$. c #241A11",
"%. c #251B11",
"&. c #241B12",
"*. c #251B12",
"=. c #231C12",
"-. c #251D12",
";. c #261C12",
":. c #261C13",
">. c #271D13",
",. c #211A14",
"<. c #221B15",
"1. c #241B14",
"2. c #231C14",
"3. c #251C15",
"4. c #241D15",
"5. c #261D16",
"6. c #251E16",
"7. c #271E17",
"8. c #261F17",
"9. c #231A12",
"0. c #2A1C11",
"q. c #2D1F14",
"w. c #281F16",
"e. c #271C18",
"r. c #291F18",
"t. c #2A2017",
"y. c #292016",
"u. c #27231A",
"i. c #2B221B",
"p. c #2D2319",
"a. c #29221C",
"s. c #2C241B",
"d. c #322721",
"f. c #332A22",
/* pixels */
"  X @ < < v f f < X . f z O z a.8.O : X.;     & : f f & @ f f   & f 3 & z X.L %.' p + Z S p p % 2 # L 2 # ' 2 : # %.' %.t 2 ' # ",
"  . X @ f v @ X X X . @ # . # 5 p O $ : o     X @ & f & X X X   X < & X : : # : p # # % S p ; Z p o L t # ' p # o p # : # # p o ",
"    X < v N @     X @ < 5 @ z # : p ; & o . . . @ & f < X   X X @ q > & 2 2 # # p o O + p p p S 2 O t t # ' p # O H O # p 2 2 . ",
"    @ < N v @     @ X v z s ,.,.z t n ; O .   . < & f <     X X & j q > X.%.p p H p + p ; p % + p O L 2 # L p p 2 <.' ' ' t L o ",
"  X t z z 5 O . . .   5 2 . t ,.L : % L & . . O N < > < .   X X O 5 @ & L X.p p ' 2 % p ; % # + 2 o L t # z p # # <.' ' t p L O ",
"@ f ,.X.t # X . @ .   : @ . O z L O % / 3 X O n j < & & . . X   X @ O o p t p : L # % Z S S % p t O t t # L p # o ' L L 2 : X.# ",
": t ' t 5 : O . : & . @ X   @ : ; p ; ; : O ; -.q q f & X X & . O : O . : t p p p # # % t ; ; S p O ' t : ' 2 p o ' p 2 2 2 L O ",
"5 5 : # 5 t # o O 5 @ @ X X : @ : / ; % o O % : & q B & X & f X @ @ o . # L 2 p p + + p ; p p % 2 o L t # L : # # ' p p p # p . ",
"# p Y p p t o L 5 z z t @ @ @ < ; S p % + + % : 3 ; -.: O f 3 > z 5 @ @ p p p p : # # % : % # # L o 2 L 2 ' p 2 O ' p 2 p # 2 o ",
"# p ' p / / o O t z t 5 @ X X @ p ; ; % p % ; t 3 $ X.& O n j 3 5 O . . o # 2 L 2 # + % S Z S L 2 o p p p ' L ' O ' p 2 p p L o ",
"C Z Y Z %.>.O % # # O .   X X X % ; S ; % C ; ; -.3 2.& X 3 & O X . . . o o p X.L # + C t p p S 2 o # : O p : p O ' p 2 p : L O ",
"Y S Y + Z %.% ( # o .     X @ @ % ; t S % % p S -.t 2.& O t O X   . X O : # p t L # + p S p % p L o 2 2 # p O O o ' # 2 p 2 ' o ",
"Y S Y + % Z O ( ,.2 O . X @ f N ; S S % % % ; >.: O S % & 8.X.3 . . o 3 X.t : p 2 O o L %.L : % t o X.8.<.e.' L o 2 p # p : H o ",
"S 0.q._ S Z o Z i.<.@ X X X < N ; S t p % % >.p.; # / : : 8.-.n O . . : ; : : ; L # # ( t.0.' Y t O %.e.%.8.t 2 o L # p p # t o ",
"F F 0.S ( Y o + <.' s @ X X @ < p S ( C + + S >.; ; >.% O / t t f O . O t t t X.%.# o L >.S ; %.L o t ' p t # # O L : p p : t o ",
"C C + o % S o # # p < < @ @ < v ; / ( C + o + ; O O ; O . : ; ; z o X : X.X.t L 8.O o p p # O # p . # 5 : L ; / o L % p % # : o ",
"` % O O O .   O e 3 O $ : @ z 5 t p S % O % t % O # o   . p L O O % : % X.L p L H O O [ k o o 2 # . z + % - - ; $ E - - $ + p o ",
"Q ; q $ $ X   3 % : X $ : @ n 3 ' ; L ; # ; / ; ; p o . o L ; . o % % % / L 2 ' 2 @ # k ] @ # k k o L # % - ; % $ E % % + O t o ",
"e ; e ; $ X   e & & X $ & @ t 3 t p p p % ; %.t / ; o . o / % o + % % # L / p L 2 # # k ] ] k k X.O <.p q - - % $ Q - - p # z O ",
"t ; / ; $ o . n 3 t o : 5 O f ; : # % % O % / : ; ; o X # / L O % % O % t ; # : p # # # b X.b 2 X.@ %.p q % - % O E - % # # z O ",
"a q q ; e ; O e n n & t t @ f t t p ; : + % / p # % % O # ; L p % ; % % L L : : 2 # # p k ] 2 # [ o :.# H p S ; O e p % p # 2 o ",
"y.; $ O e / O 3 3 n & e z & n n X.; L S % ; / ; # ; S % + p ; ; S t % % X.%.L L 2 p # p b 2 # 2 2 O <.# p p E % $ / S / L 2 ' # ",
"e $ $ X ; e O 3 ; 3 & t 3 O 3 3 ; : ; % # ; %.; % S p : % % p p ; ; O O L L p 2 ; # + 2 b @ @ # H O X.# ; p S % O q L / t 2 L O ",
"a $ $ X ; e & n 3 n O 5 5 . & O # o O + o % ; : p % % % ; ; ; % p % O o % p o O # o o 2 k o O k ' O <.p ; p p : . + o # o o # . ",
"-.% O . $ n & 3 3 n 3 $ O : N 2./ L / t # % E % ; # S O O L : ; ; % % / 8.>.' t / # O L 2 . o k H O 2 Z # b # o 2 >.e.t t %.z o ",
"~ $ X . $ e O 3 3 3 : & @ O 3 N / ; / ; # ; L : % + ; O % e p L ; # $ S %./ t 5 X.# # t 2 . o # H o 2 2 # 2 # @ O t X.2 2 ' H O ",
"e $ X . $ q & 3 3 3 ; & @ . O X.t ; t ; O % L % % O S $ % / p ; p # + % t S p : X.# # H : o . # # O 2 2 2 b @ o . # X.2 p L 2 o ",
"e $ O . $ q O q n 3 3 3 O . X X.p : ; % O % L p % % L : % S % % ; % + % ; p : p ' # O p # o o : H O 2 b 2 b @ @   @ ] k : t % O ",
"e ; $ O $ e $ q n 3 ; ; O   X n p % ; p o % ; % ; : / # + ; # % S p % % ; p : ; p O O 2 2 @ O p 2 O ' L 2 b @ @   @ b k p p # o ",
"q ; q $ q e O ; f ; : $ .   X t ; p ; p + % ; # % # ; + O / p ; L p % p t p p L 2 O O # 2 # # 2 2 o ' L < b @ . . @ b b 2 p % O ",
"; q e ; q q O & 3 : O X . . X & t p L p O % ; : S $ ; O + ; % / ; : p p p p 2 t 2 # # # k # # t 2 o 2 p @ 2 o   . @ # k ' L % + ",
"& q a % ; & X $ : $ O     . O O t ; L ; + % S % / ; t O O ; % ; % % % ; ; p p t ' # # 2 k k p p : o # # @ @ .   . o # 2 z L % + ",
"Q - - % E q o ; o o . # O . O # % # % t % p ; % % ; ; O O O O . # o o # p t L 2 p : p p H 2 p L : O & $ X O O X . t : : p # 2 o ",
"E - Q % - / % t.( X.# %.' O L ' L % ; p O % ; % : / / ; ; / >.t X.L # # t L 2 : p # # p t : : : ; & q n e n N 3 . t ; / t p Y o ",
"q Q y.% O % o / 0.8.' <.' O t X./ % ; ; # ; y.y.O % % O % / / / >.L 5 : p 2 p : p # : ' <.%.t t & $ j u.2.2.2.e o X.t X.' 2 ' o ",
"Q y.p.~ Q ~ O ; / / # L 2 o : t / ; S % O - e.p.; / / % % / >.( L 5 O # p p p p p # # L e.e.%.e > $ > B n n e & o %.X.X.' 2 H o ",
"% % E % E E O % t ; O t p o 2 L X.; ; : o O % % ; ; ; O O ; L ; 2 # O O # 2 p : 2 O o : t L p : q X > a a $ ; & o ' H ' L : p o ",
"% $ O X O O . o ; % o : 2 O L ' / % ; % O O % O O + O . . + % # L 2 # # p H p # L # O # : % O O X X $ > $ X & 3 o ' 2 L 2 # 2 o ",
"p.Q E % % o . p p O . O p O t p - + # % % / %.; ; t S O + ; / ; L 2 p p L 2 # # L 2 : t t p # : X   X > X . X 3 O ' 2 2 # # H o ",
"~ % - q % .   # L O . O p : L : ; O O % % t / % p / ; O + : p # p p # : ' L p O # # p ' ' t p ; .   & a X X $ 3 O ' 2 H # # H O ",
"Q - Q q % O X - % : # # L o ' t # % L ; o % / / / % ; % ; / % L 2 # # p H 2 2 L p # : p 2 ; 2 : . @ j q O O ; & O ' # p L L ' O ",
"Q % Q - % % o ; L ; p % L o ; : % % ; % O p / % ; # L : ; L % ; p # # : 2 2 p p p # # p 2 L t p $ & q q & n e $ O ' 2 2 # # # o ",
"~ % - - - ; O / S ; : # X.O X.t S : p % % L / : % % t % % / % ; L p # p L z 2 p 2 p # # p p ; : a & & & & n X.$ O <.' ' # # H O ",
"~ % % % - e % E p % : : X.o %.X./ ; ; ; % e ( % % O ; % % / : ; t # # p L L p : 2 # o . o : 2 p $ @ & $ . X & : O ' ' ' [ # [ # ",
"Q % q % % ~ % ; S t ; % ' o ; : % % p % O + - O o O S % # t p ; p O o # t 2 # # L # .   . O p : $ X X X . X & ; o H # # # # [ o ",
"Q - q % % E # % p p : # t o L t p % ; p O O % O o o t $ O S p ; 2 O O p X.L p : t # .     O p : j X   X o & ; & # X.# # [ # 2 o ",
"~ - E % % ; O - % # # # X.O 8.%.S : ; ; % ; ; O . o ; % O / p p 2 # # p %.<.L p t # . . . # L : B X   X o ; t # # :.H [ [ b [ o ",
"- % E % % ; % % t p p 5 %.O X.X./ % # : % S ; o . o ; O O / p 2 # o o # ' t 2 # t p o . o 2 ' # & .   . . o : 2 O X.[ [ b # ] C ",
"q O ; % p p o # % S ; % L o ; p t : S t # : p # o o 2 # # L # H z @ . . 2 2 # 5 0.% o + L / L % a . . $ . & X &   O L : : L L + ",
"E + ; % % p + - % % p % t o ; % p # 2 2 O # p # # # X.p p ' 2 ' t @ . . 2 2 # L / % o # ; S ; % & X . & . $ . O . : L : # p # o ",
"S + % % % ; + ; ; p p % / o L ; 2 : p p O # p # O O p O O p O : # O . . 5 2 2 L ; O o % ; ; p S a X & f $ & X & . # L 2 # 2 # o ",
"e # ; p % ; O % ; t ; ; >.O X.L H # 2 p O # p p t p L # # ' 2 L O .   . 2 2 2 ' % # + % S p 2 L a X > j q B q a . # t 2 H [ 2 o ",
"/ % / ; ; ; o % ; % ; % / o / ; L : 2 p # : t t ' p L O O ' # : . .   . # 2 p %.p % % p 2 H H ' a X $ $ > a $ $ . O # # H ' H O ",
"/ % e S t ; o O + + % O : . % # t p t t # : L 2 2 # # o o O o o X . . . # p p ' t : p S [ ] H H B X > X $ X X   . o # # 2 [ # # ",
"e % ; % p t O ; % % : % / . ; % p # 2 L # % L 2 ' t / : 5 %.# p ; & O O L 2 # z H # # p H H 2 H a X =.> $ X   . O O # # # [ # # ",
"X.% : # % ; % / / L / ; / o / ; p # 2 L # : t 2 2 # t # 2 <.' ' 2.X.& & ' 2 # k H # + p H H Z # a X u.j a . X X 2 2 k H [ H 2 # ",
"t p.f./ ; ( % % s.s./ L % o ; % : p L 2 o p s.f.p X.' O # r.s.%.X.-.$ O ; 8.t : [ # o T d.r.2 ( a $ a u.-.& O X o 2 # L ' L L o ",
"; / Q % ; / O O t / : ; ; O ; p p # p p o O L X.: %.X.O O ' ' : ; e $ O 3 8.X.p ] # o H r.X.2 b > X > =.n & O o o 2 : t ' 2 [ o ",
"t % O o ; ; o O O ; # ; S O p % L # # # # # p o o p 2 o o 2 p o X ; $ O ; ( t : ] o o 2 2 # # # $ X @ > ; & & $ o 2 2 L ' # H o ",
">.% % O t ; . O % ; % L ; O ; % 2 # # p p 2 L # o # o . o p : . O $ $ $ ; ; # # T o # H # @ # # X X @ > O O & ; + H p 2 [ [ # o ",
"y.t ; : / ; o t t e % ; ; O S ; 2 # : p # 2 <.X.X.2 o . o : O . $ % % $ t p O % b O b e.k 2 z :     > a O O & ; + ' p 2 [ 2 H o ",
"/ ; ; ; L ; O >.; S O p : o ; t 2 # p p # : %.%.%.p o . o t ; o X $ $ % E t % ; Z O # X.[ H z &   . > a O o & ; O ' # H 2 # # o ",
"; ; / % ; / # / ; t O ; - o ; t H : p p # # ' 2 p # O o $ X.~ % $ $ $ $ L L p ; # # # # ] b & 3 X X > a % & 2 # O ' 2 2 # Z [ o ",
"t ; / # ; / O : ; L % ; ; O ; ; L # p p : p ' p p t 2 # % t q % q q % $ / ; % ; b ] # # X.] > j $ $ $ 4 : t z # O [ # 2 H 2 2 O "
};
